<svg width="177" height="26" viewBox="0 0 177 26" fill="none" xmlns="http://www.w3.org/2000/svg">
<path d="M67.1282 25.137H61.2461L61.2637 12.5685L52.3994 0H58.2639L64.1871 8.39786L70.1104 0H75.9749L67.1282 12.5455V25.137Z" fill="white"/>
<path d="M168.154 12.5685V25.137H162.272V12.5434L153.425 0H159.289L168.154 12.5685Z" fill="white"/>
<path d="M177 0L169.985 9.94588L167.053 5.7878L171.136 0H177Z" fill="white"/>
<path d="M24.5088 4.76572L20.0501 0.0022576H0V25.1393H20.0501L24.5088 20.3716V15.7108L21.5677 12.5687L24.5088 9.42655V4.76572ZM18.6267 18.8529H5.88211V15.7108H18.6267V18.8529ZM18.6267 9.42655H5.88211V6.28442H18.6267V9.42655Z" fill="white"/>
<path d="M121.074 0.00202956H101.024L105.926 12.5705L101.024 25.1391H106.906V18.8548H121.076L125.533 14.0892V4.76549L121.074 0.00202956ZM119.651 12.5705H106.906V6.28629H119.651V12.5705Z" fill="white"/>
<path d="M153.962 4.76556V25.137H148.08V6.28425H135.335V12.5685H145.139V18.8528H135.335V25.137H129.453V4.76556L133.912 0H149.503L149.501 0.0020952L153.962 4.76556Z" fill="white"/>
<path d="M52.9365 4.76556V25.137H47.0543V6.28425H34.3098V12.5685H44.1133V18.8528H34.3098V25.137H28.4277V4.76556L32.8883 0H48.4798L48.4778 0.0020952L52.9365 4.76556Z" fill="white"/>
<path d="M81.3186 6.28425V18.8528H97.1023V25.137H79.8971L75.4365 20.3715V4.76556L79.8971 0H97.1023V6.28425H81.3186Z" fill="white"/>
</svg>
