<svg width="315" height="93" viewBox="0 0 315 93" fill="none" xmlns="http://www.w3.org/2000/svg">
<path d="M53.3179 22C59.2928 22 64.1361 17.0753 64.1361 11V3.3C64.1361 2.42479 63.7941 1.58542 63.1855 0.966548C62.5769 0.347678 61.7514 0 60.8906 0L53.8588 0V4.8257C53.8588 5.9268 53.9248 7.0675 54.4928 8.0047C54.8993 8.67636 55.4433 9.25125 56.0876 9.69034C56.732 10.1294 57.4617 10.4225 58.2272 10.5496L58.4344 10.5837C58.5198 10.6133 58.5939 10.6694 58.6464 10.7441C58.6989 10.8187 58.7271 10.9082 58.7271 11C58.7271 11.0918 58.6989 11.1813 58.6464 11.2559C58.5939 11.3306 58.5198 11.3867 58.4344 11.4164L58.2272 11.4504C57.1087 11.6362 56.0758 12.1746 55.2744 12.9894C54.473 13.8043 53.9436 14.8545 53.7609 15.9918L53.7274 16.2024C53.6982 16.2893 53.643 16.3647 53.5696 16.4181C53.4962 16.4714 53.4082 16.5001 53.3179 16.5001C53.2276 16.5001 53.1396 16.4714 53.0662 16.4181C52.9928 16.3647 52.9376 16.2893 52.9084 16.2024L52.8749 15.9918C52.7499 15.2134 52.4617 14.4715 52.0298 13.8163C51.598 13.1611 51.0326 12.6081 50.3721 12.1946C49.4504 11.6171 48.3286 11.55 47.2456 11.55H42.5127C42.7956 17.3696 47.5248 22 53.3179 22Z" fill="white"/>
<path d="M42.5 10.45H47.2459C48.3288 10.45 49.4507 10.3829 50.3724 9.8054C51.0929 9.35401 51.6994 8.73731 52.1433 8.0047C52.7113 7.0675 52.7773 5.9268 52.7773 4.8257V0H45.7455C44.8847 0 44.0592 0.347678 43.4506 0.966548C42.8419 1.58542 42.5 2.42479 42.5 3.3V10.45ZM67.6279 1.1C67.6279 1.39174 67.514 1.67153 67.3111 1.87782C67.1082 2.08411 66.833 2.2 66.5461 2.2C66.2592 2.2 65.984 2.08411 65.7812 1.87782C65.5783 1.67153 65.4643 1.39174 65.4643 1.1C65.4643 0.808262 65.5783 0.528473 65.7812 0.322183C65.984 0.115893 66.2592 0 66.5461 0C66.833 0 67.1082 0.115893 67.3111 0.322183C67.514 0.528473 67.6279 0.808262 67.6279 1.1ZM157.016 6.6572C160.041 6.6572 161.5 8.80495 161.5 11.2926V15.9649H158.335V11.847C158.335 10.7195 157.931 9.7889 156.77 9.7889C155.61 9.7889 155.223 10.7195 155.223 11.847V15.9643H152.058V11.847C152.058 10.7195 151.672 9.7889 150.511 9.7889C149.351 9.7889 148.946 10.7195 148.946 11.847V15.9643H145.782V11.2921C145.782 8.8044 147.241 6.65665 150.265 6.65665C151.918 6.65665 153.113 7.31885 153.658 8.4106C154.238 7.31885 155.505 6.6561 157.016 6.6561V6.6572ZM140.095 13.101C141.114 13.101 141.554 12.1523 141.554 11.0242V7.0147H144.718V11.418C144.718 14.0492 143.206 16.2332 140.095 16.2332C136.982 16.2332 135.47 14.0498 135.47 11.418V7.0147H138.635V11.0242C138.635 12.1517 139.074 13.101 140.095 13.101ZM130.817 16.2509C128.83 16.2509 127.547 15.5529 126.79 14.1928L129.076 12.886C129.393 13.4585 129.867 13.745 130.658 13.745C131.309 13.745 131.608 13.5124 131.608 13.2259C131.608 12.1341 126.966 13.244 126.966 9.77185C126.966 8.08885 128.373 6.7287 130.764 6.7287C132.856 6.7287 133.999 7.76655 134.509 8.7692L132.223 10.0936C132.03 9.5568 131.432 9.2345 130.834 9.2345C130.377 9.2345 130.131 9.4314 130.131 9.6998C130.131 10.8097 134.773 9.78945 134.773 13.1544C134.773 15.0337 132.962 16.2509 130.817 16.2509ZM119.76 20.0816H116.595V11.4719C116.595 8.7329 118.617 6.7463 121.43 6.7463C124.173 6.7463 126.265 8.87645 126.265 11.4719C126.265 14.3357 124.401 16.2332 121.606 16.2332C120.955 16.2332 120.305 16.0364 119.76 15.7317V20.0816ZM121.43 13.2083C122.432 13.2083 123.1 12.4206 123.1 11.4895C123.1 10.5413 122.432 9.7713 121.43 9.7713C120.428 9.7713 119.76 10.5413 119.76 11.4901C119.76 12.4207 120.428 13.2083 121.43 13.2083ZM113.425 6.0665C112.387 6.0665 111.526 5.18925 111.526 4.13325C111.526 3.07725 112.387 2.2 113.425 2.2C114.462 2.2 115.324 3.07725 115.324 4.13325C115.324 5.18925 114.462 6.0665 113.425 6.0665ZM111.842 7.0147H115.007V15.9649H111.842V7.0147ZM105.77 16.2332C103.027 16.2332 100.935 14.0855 100.935 11.4719C100.935 8.87645 103.027 6.7287 105.77 6.7287C108.513 6.7287 110.605 8.87645 110.605 11.4719C110.605 14.0855 108.513 16.2332 105.77 16.2332ZM105.77 13.2083C106.772 13.2083 107.44 12.4206 107.44 11.4895C107.44 10.5413 106.772 9.7537 105.77 9.7537C104.768 9.7537 104.1 10.5413 104.1 11.4895C104.1 12.4206 104.768 13.2083 105.77 13.2083ZM94.959 20.35C92.7791 20.35 91.1964 19.3655 90.3878 17.611L93.0074 16.1793C93.2887 16.7882 93.816 17.4146 94.906 17.4146C96.0495 17.4146 96.8051 16.6804 96.8933 15.3918C96.4714 15.768 95.8028 16.0539 94.801 16.0539C92.3567 16.0539 90.3872 14.1389 90.3872 11.4538C90.3872 8.85885 92.48 6.7463 95.223 6.7463C98.0362 6.7463 100.058 8.73345 100.058 11.4719V15.0161C100.058 18.238 97.8599 20.35 94.959 20.35ZM95.1699 13.0295C96.1192 13.0295 96.8403 12.3667 96.8403 11.3822C96.8403 10.4159 96.1198 9.7713 95.1699 9.7713C94.238 9.7713 93.4996 10.4159 93.4996 11.3828C93.4996 12.3673 94.238 13.0289 95.1699 13.0289V13.0295ZM85.0192 16.2332C82.2763 16.2332 80.1835 14.0855 80.1835 11.4719C80.1835 8.87645 82.2763 6.7287 85.0192 6.7287C87.7617 6.7287 89.8544 8.87645 89.8544 11.4719C89.8544 14.0855 87.7622 16.2332 85.0192 16.2332ZM85.0192 13.2083C86.0215 13.2083 86.6896 12.4206 86.6896 11.4895C86.6896 10.5413 86.0215 9.7537 85.0192 9.7537C84.0169 9.7537 83.3489 10.5413 83.3489 11.4895C83.3489 12.4206 84.0169 13.2083 85.0192 13.2083ZM74.4207 3.883V12.9217H79.6605V15.9649H73.9809C71.9768 15.9649 71.1682 14.8907 71.1682 13.1901V3.883H74.4207Z" fill="white"/>
<path fill-rule="evenodd" clip-rule="evenodd" d="M185.597 15.4C184.881 15.4 184.194 15.1103 183.688 14.5945C183.182 14.0788 182.898 13.3793 182.898 12.65V0H177.5V12.65C177.5 17.2062 181.125 20.9 185.597 20.9H191.534V15.4H185.597ZM201.79 5.5C201.152 5.5 200.52 5.62804 199.931 5.8768C199.341 6.12556 198.806 6.49017 198.355 6.94982C197.904 7.40947 197.546 7.95516 197.302 8.55572C197.057 9.15628 196.932 9.79996 196.932 10.45C196.932 11.1 197.057 11.7437 197.302 12.3443C197.546 12.9448 197.904 13.4905 198.355 13.9502C198.806 14.4098 199.341 14.7744 199.931 15.0232C200.52 15.272 201.152 15.4 201.79 15.4C203.078 15.4 204.314 14.8785 205.225 13.9502C206.136 13.0219 206.648 11.7628 206.648 10.45C206.648 9.13718 206.136 7.87813 205.225 6.94982C204.314 6.02152 203.078 5.5 201.79 5.5ZM191.534 10.45C191.534 4.67885 196.126 0 201.79 0C207.454 0 212.045 4.67885 212.045 10.45C212.045 16.2211 207.454 20.9 201.79 20.9C196.126 20.9 191.534 16.2211 191.534 10.45ZM260.085 5.5C258.797 5.5 257.561 6.02152 256.65 6.94982C255.739 7.87813 255.227 9.13718 255.227 10.45C255.227 11.7628 255.739 13.0219 256.65 13.9502C257.561 14.8785 258.797 15.4 260.085 15.4C261.374 15.4 262.609 14.8785 263.52 13.9502C264.431 13.0219 264.943 11.7628 264.943 10.45C264.943 9.13718 264.431 7.87813 263.52 6.94982C262.609 6.02152 261.374 5.5 260.085 5.5ZM249.83 10.45C249.83 4.67885 254.421 0 260.085 0C265.749 0 270.341 4.67885 270.341 10.45C270.341 16.2211 265.749 20.9 260.085 20.9C254.421 20.9 249.83 16.2211 249.83 10.45ZM223.381 0C217.717 0 213.125 4.67885 213.125 10.45C213.125 16.2211 217.717 20.9 223.381 20.9H238.494C239.557 20.9 240.582 20.735 241.546 20.4292L244.432 22L247.545 16.0578C248.336 14.5451 248.75 12.8575 248.75 11.1435V10.45C248.75 4.67885 244.158 0 238.494 0H223.381ZM243.352 10.45C243.352 9.13718 242.84 7.87813 241.929 6.94982C241.018 6.02152 239.783 5.5 238.494 5.5H223.381C222.743 5.5 222.111 5.62804 221.522 5.8768C220.932 6.12556 220.397 6.49017 219.946 6.94982C219.494 7.40947 219.137 7.95516 218.893 8.55572C218.648 9.15628 218.523 9.79996 218.523 10.45C218.523 11.1 218.648 11.7437 218.893 12.3443C219.137 12.9448 219.494 13.4905 219.946 13.9502C220.397 14.4098 220.932 14.7744 221.522 15.0232C222.111 15.272 222.743 15.4 223.381 15.4H238.494C239.776 15.4 241.006 14.8838 241.916 13.9638C242.826 13.0438 243.342 11.7946 243.352 10.4885V10.45Z" fill="white"/>
<path d="M272.5 1.375C272.5 1.73967 272.358 2.08941 272.105 2.34727C271.852 2.60513 271.509 2.75 271.151 2.75C270.793 2.75 270.45 2.60513 270.197 2.34727C269.943 2.08941 269.801 1.73967 269.801 1.375C269.801 1.01033 269.943 0.660591 270.197 0.402728C270.45 0.144866 270.793 0 271.151 0C271.509 0 271.852 0.144866 272.105 0.402728C272.358 0.660591 272.5 1.01033 272.5 1.375Z" fill="white"/>
<path d="M110.976 54.238H113.488V44.5643H110.976V54.238ZM110.976 43.0557H113.488V40.7551H110.976V43.0557Z" fill="white"/>
<path d="M115.107 57.406H117.619V53.1443H117.656C118.191 53.974 119.06 54.5209 120.389 54.5209C122.828 54.5209 124.49 52.5409 124.49 49.4106C124.49 46.3934 122.883 44.3003 120.371 44.3003C119.078 44.3003 118.191 44.9226 117.582 45.7712H117.527V44.5643H115.107V57.406ZM119.854 52.39C118.358 52.39 117.564 51.2398 117.564 49.486C117.564 47.7512 118.191 46.3746 119.762 46.3746C121.313 46.3746 121.941 47.6569 121.941 49.486C121.941 51.3152 121.129 52.39 119.854 52.39Z" fill="white"/>
<path d="M129.502 54.5209C131.866 54.5209 133.492 53.3518 133.492 51.4094C133.492 49.1466 131.737 48.694 130.148 48.3546C128.8 48.0718 127.544 47.9963 127.544 47.1666C127.544 46.4689 128.19 46.0918 129.169 46.0918C130.241 46.0918 130.887 46.4689 130.998 47.506H133.27C133.086 45.5638 131.7 44.3003 129.207 44.3003C127.045 44.3003 125.346 45.2998 125.346 47.3929C125.346 49.5049 127.008 49.9763 128.708 50.3158C130.001 50.5798 131.201 50.674 131.201 51.598C131.201 52.2769 130.573 52.7106 129.465 52.7106C128.338 52.7106 127.562 52.2203 127.396 51.1078H125.069C125.216 53.1632 126.75 54.5209 129.502 54.5209Z" fill="white"/>
<path d="M143.029 54.2379V44.5642H140.517V50.1459C140.517 51.4282 139.797 52.3333 138.615 52.3333C137.543 52.3333 137.045 51.7111 137.045 50.5797V44.5642H134.551V51.0133C134.551 53.1253 135.733 54.5019 137.839 54.5019C139.169 54.5019 139.908 53.9928 140.554 53.1065H140.61V54.2379H143.029Z" fill="white"/>
<path d="M144.654 54.238H147.167V48.6186C147.167 47.3363 147.85 46.5066 148.866 46.5066C149.79 46.5066 150.325 47.0723 150.325 48.166V54.238H152.837V48.6186C152.837 47.3363 153.484 46.5066 154.537 46.5066C155.461 46.5066 155.996 47.0723 155.996 48.166V54.238H158.508V47.7323C158.508 45.6203 157.381 44.3003 155.386 44.3003C154.186 44.3003 153.188 44.9414 152.542 45.9974H152.505C152.043 44.9792 151.083 44.3003 149.882 44.3003C148.571 44.3003 147.647 44.9792 147.13 45.8654H147.074V44.5643H144.654V54.238Z" fill="white"/>
<path d="M45.5 54.238H48.0122V40.7551H45.5V54.238Z" fill="white"/>
<path d="M54.1545 54.5209C57.0915 54.5209 59.1049 52.2958 59.1049 49.4106C59.1049 46.5254 57.0915 44.3003 54.1545 44.3003C51.2175 44.3003 49.2041 46.5254 49.2041 49.4106C49.2041 52.2958 51.2175 54.5209 54.1545 54.5209ZM54.1545 52.5598C52.6029 52.5598 51.7532 51.2963 51.7532 49.4106C51.7532 47.5249 52.6029 46.2426 54.1545 46.2426C55.6877 46.2426 56.5559 47.5249 56.5559 49.4106C56.5559 51.2963 55.6877 52.5598 54.1545 52.5598Z" fill="white"/>
<path d="M64.4474 57.538C65.8513 57.538 67.0704 57.1986 67.8647 56.4443C68.5666 55.7843 68.9915 54.8603 68.9915 53.5026V44.5643H66.5717V45.5826H66.5347C65.9621 44.7718 65.0939 44.3003 63.9117 44.3003C61.5104 44.3003 59.811 46.1483 59.811 49.0334C59.811 51.9563 61.8799 53.6534 63.9857 53.6534C65.1863 53.6534 65.9067 53.1632 66.4608 52.522H66.5163V53.578C66.5163 54.898 65.8328 55.5958 64.4105 55.5958C63.2468 55.5958 62.7111 55.1243 62.5079 54.5209H60.0142C60.2728 56.4066 61.8614 57.538 64.4474 57.538ZM64.4105 51.598C63.1175 51.598 62.2678 50.6363 62.2678 48.9958C62.2678 47.374 63.1174 46.3558 64.392 46.3558C65.9067 46.3558 66.6456 47.5626 66.6456 48.9769C66.6456 50.41 65.9991 51.598 64.4105 51.598Z" fill="white"/>
<path d="M75.0979 54.5209C78.0349 54.5209 80.0483 52.2958 80.0483 49.4106C80.0483 46.5254 78.0349 44.3003 75.0979 44.3003C72.1609 44.3003 70.1475 46.5254 70.1475 49.4106C70.1475 52.2958 72.1609 54.5209 75.0979 54.5209ZM75.0979 52.5598C73.5463 52.5598 72.6966 51.2963 72.6966 49.4106C72.6966 47.5249 73.5463 46.2426 75.0979 46.2426C76.631 46.2426 77.4993 47.5249 77.4993 49.4106C77.4993 51.2963 76.631 52.5598 75.0979 52.5598Z" fill="white"/>
<path d="M159.421 42.9761C159.421 42.5422 159.766 42.1904 160.191 42.1904H161.73C162.155 42.1904 162.5 42.5422 162.5 42.9761C162.5 43.4101 162.155 43.7619 161.73 43.7619H160.191C159.766 43.7619 159.421 43.4101 159.421 42.9761Z" fill="white"/>
<path fill-rule="evenodd" clip-rule="evenodd" d="M95.283 38C101.234 38 106.058 42.9249 106.058 49C106.058 55.0751 101.234 60 95.283 60C89.332 60 84.5078 55.0751 84.5078 49C84.5078 42.9249 89.332 38 95.283 38ZM94.8935 38.8231C93.6642 38.9997 92.4937 40.0081 91.5851 41.6946C91.3215 42.1838 91.0837 42.7242 90.8765 43.3077C92.112 42.9908 93.4692 42.8039 94.8935 42.775V38.8231ZM89.9658 43.5719C90.2236 42.7463 90.5388 41.9866 90.9026 41.3114C91.353 40.4753 91.8876 39.7534 92.4898 39.1989C89.2148 40.1699 86.6333 42.8052 85.6821 46.1486C86.2253 45.5338 86.9325 44.9881 87.7515 44.5283C88.413 44.1569 89.157 43.835 89.9658 43.5719ZM89.707 44.5016C89.3966 45.7629 89.2135 47.1484 89.1852 48.6024H85.3141C85.4871 47.3475 86.4748 46.1525 88.1269 45.225C88.606 44.956 89.1354 44.7132 89.707 44.5016ZM89.9643 48.6024C89.9965 47.0156 90.2203 45.5259 90.5905 44.2096C91.8799 43.8317 93.3391 43.6032 94.8935 43.5703V45.2879C94.3137 46.8034 93.131 48.0107 91.6464 48.6024H89.9643ZM89.1852 49.3976H85.3141C85.4871 50.6525 86.4748 51.8474 88.1269 52.775C88.606 53.044 89.1354 53.2868 89.707 53.4984C89.3966 52.2371 89.2135 50.8516 89.1852 49.3976ZM90.5905 53.7904C90.2203 52.4741 89.9965 50.9844 89.9643 49.3976H91.6464C93.131 49.9893 94.3137 51.1966 94.8935 52.7121V54.4297C93.3391 54.3968 91.8799 54.1684 90.5905 53.7904ZM89.9658 54.4281C89.157 54.165 88.413 53.8431 87.7515 53.4717C86.9325 53.0119 86.2253 52.4662 85.6821 51.8514C86.6333 55.1948 89.2148 57.8301 92.4898 58.8011C91.8876 58.2466 91.353 57.5247 90.9026 56.6886C90.5388 56.0134 90.2236 55.2537 89.9658 54.4281ZM94.8935 59.1769C93.6642 59.0003 92.4937 57.9919 91.5851 56.3054C91.3215 55.8163 91.0837 55.2758 90.8765 54.6923C92.112 55.0092 93.4692 55.1961 94.8935 55.225V59.1769ZM98.0761 58.8011C98.6784 58.2466 99.2129 57.5247 99.6633 56.6886C100.027 56.0134 100.343 55.2537 100.6 54.4281C101.409 54.165 102.153 53.8431 102.814 53.4717C103.633 53.0119 104.341 52.4662 104.884 51.8514C103.932 55.1948 101.351 57.8301 98.0761 58.8011ZM99.6897 54.6923C99.4822 55.2758 99.2441 55.8163 98.9806 56.3054C98.0722 57.9919 96.9017 59.0003 95.6724 59.1769V55.225C97.0967 55.1961 98.4539 55.0092 99.6897 54.6923ZM100.859 53.4984C101.43 53.2868 101.96 53.044 102.439 52.775C104.091 51.8475 105.079 50.6525 105.252 49.3976H101.381C101.352 50.8516 101.169 52.2371 100.859 53.4984ZM100.602 49.3976C100.569 50.9844 100.346 52.4741 99.9752 53.7904C98.6861 54.1684 97.2268 54.3968 95.6724 54.4297V52.7133C96.2521 51.1973 97.4351 49.9895 98.92 49.3976H100.602ZM101.381 48.6024H105.252C105.079 47.3475 104.091 46.1525 102.439 45.225C101.96 44.956 101.43 44.7132 100.859 44.5016C101.169 45.7629 101.352 47.1484 101.381 48.6024ZM99.9752 44.2096C100.346 45.5259 100.569 47.0156 100.602 48.6024H98.92C97.4351 48.0105 96.2521 46.8027 95.6724 45.2867V43.5703C97.2268 43.6032 98.6861 43.8317 99.9752 44.2096ZM100.6 43.5719C101.409 43.835 102.153 44.1569 102.814 44.5283C103.633 44.9881 104.341 45.5338 104.884 46.1486C103.932 42.8052 101.351 40.1699 98.0761 39.1989C98.6784 39.7534 99.2129 40.4753 99.6633 41.3114C100.027 41.9866 100.343 42.7463 100.6 43.5719ZM95.6724 38.8231C96.9017 38.9997 98.0722 40.0081 98.9806 41.6946C99.2441 42.1838 99.4822 42.7242 99.6897 43.3077C98.4539 42.9908 97.0967 42.8039 95.6724 42.775V38.8231Z" fill="white"/>
<path d="M205.023 52.9624H211.556V51.0724H207.345V43.9534H205.023V52.9624Z" fill="white"/>
<path d="M215.426 51.7026C214.495 51.7026 214.01 50.9214 214.01 49.7496C214.01 48.5778 214.495 47.784 215.426 47.784C216.358 47.784 216.856 48.5778 216.856 49.7496C216.856 50.9214 216.358 51.7026 215.426 51.7026ZM215.439 53.1642C217.604 53.1642 219.02 51.69 219.02 49.7496C219.02 47.8092 217.604 46.335 215.439 46.335C213.288 46.335 211.845 47.8092 211.845 49.7496C211.845 51.69 213.288 53.1642 215.439 53.1642Z" fill="white"/>
<path d="M222.766 55.1927C223.763 55.1927 224.642 54.9785 225.232 54.4745C225.77 54.0083 226.124 53.3027 226.124 52.3325V46.5113H224.078V47.2043H224.052C223.658 46.6625 223.055 46.3223 222.163 46.3223C220.497 46.3223 219.343 47.6579 219.343 49.5479C219.343 51.5261 220.746 52.6097 222.255 52.6097C223.068 52.6097 223.58 52.2947 223.973 51.8663H224.026V52.5089C224.026 53.2901 223.645 53.7437 222.74 53.7437C222.032 53.7437 221.678 53.4539 221.56 53.1137H219.487C219.697 54.4619 220.917 55.1927 222.766 55.1927ZM222.753 51.0851C221.953 51.0851 221.428 50.4551 221.428 49.4849C221.428 48.5021 221.953 47.8721 222.753 47.8721C223.645 47.8721 224.117 48.6029 224.117 49.4723C224.117 50.3795 223.685 51.0851 222.753 51.0851Z" fill="white"/>
<path d="M230.332 51.7026C229.401 51.7026 228.915 50.9214 228.915 49.7496C228.915 48.5778 229.401 47.784 230.332 47.784C231.263 47.784 231.762 48.5778 231.762 49.7496C231.762 50.9214 231.263 51.7026 230.332 51.7026ZM230.345 53.1642C232.509 53.1642 233.926 51.69 233.926 49.7496C233.926 47.8092 232.509 46.335 230.345 46.335C228.194 46.335 226.751 47.8092 226.751 49.7496C226.751 51.69 228.194 53.1642 230.345 53.1642Z" fill="white"/>
<path d="M234.55 52.9624H236.688V46.5112H234.55V52.9624ZM234.55 45.6166H236.688V43.9534H234.55V45.6166Z" fill="white"/>
<path d="M237.616 55.0919H239.754V52.2947H239.781C240.2 52.8365 240.817 53.1641 241.683 53.1641C243.44 53.1641 244.608 51.8285 244.608 49.7369C244.608 47.7965 243.519 46.3223 241.735 46.3223C240.817 46.3223 240.161 46.7129 239.702 47.2925H239.662V46.5113H237.616V55.0919ZM241.132 51.5765C240.213 51.5765 239.689 50.8583 239.689 49.8125C239.689 48.7667 240.161 47.9729 241.092 47.9729C242.01 47.9729 242.443 48.7037 242.443 49.8125C242.443 50.9087 241.945 51.5765 241.132 51.5765Z" fill="white"/>
<path d="M248.089 53.1641C249.847 53.1641 251.145 52.4333 251.145 51.0221C251.145 49.3715 249.755 49.0817 248.574 48.8927C247.722 48.7415 246.961 48.6785 246.961 48.2249C246.961 47.8217 247.367 47.6327 247.892 47.6327C248.482 47.6327 248.889 47.8091 248.968 48.3887H250.935C250.83 47.1161 249.807 46.3223 247.905 46.3223C246.318 46.3223 245.006 47.0279 245.006 48.3887C245.006 49.9007 246.253 50.2031 247.42 50.3921C248.312 50.5433 249.125 50.6063 249.125 51.1859C249.125 51.6017 248.719 51.8285 248.076 51.8285C247.367 51.8285 246.922 51.5135 246.843 50.8709H244.823C244.888 52.2947 246.121 53.1641 248.089 53.1641Z" fill="white"/>
<path d="M254.049 53.1514C254.98 53.1514 255.571 52.7986 256.056 52.1686H256.095V52.9624H258.142V46.5112H256.004V50.1148C256.004 50.8834 255.558 51.4126 254.823 51.4126C254.141 51.4126 253.813 51.022 253.813 50.3164V46.5112H251.688V50.7448C251.688 52.1812 252.501 53.1514 254.049 53.1514Z" fill="white"/>
<path d="M259.072 52.9625H261.21V49.3463C261.21 48.5777 261.603 48.0359 262.272 48.0359C262.915 48.0359 263.217 48.4391 263.217 49.1321V52.9625H265.355V49.3463C265.355 48.5777 265.735 48.0359 266.417 48.0359C267.06 48.0359 267.362 48.4391 267.362 49.1321V52.9625H269.5V48.7667C269.5 47.3177 268.739 46.3223 267.218 46.3223C266.352 46.3223 265.63 46.6751 265.106 47.4563H265.079C264.738 46.7633 264.069 46.3223 263.191 46.3223C262.22 46.3223 261.577 46.7633 261.157 47.4311H261.118V46.5113H259.072V52.9625Z" fill="white"/>
<path fill-rule="evenodd" clip-rule="evenodd" d="M183.174 39.8889C182.393 40.4141 181.685 41.035 181.072 41.734C183.58 41.5103 186.767 41.8756 190.466 43.6525C194.417 45.55 197.598 45.6141 199.813 45.2039C199.612 44.6196 199.359 44.0581 199.059 43.5243C196.525 43.781 193.275 43.4411 189.489 41.6225C187.084 40.4676 184.964 39.9919 183.174 39.8889ZM197.579 41.5C195.577 39.3519 192.668 38 189.431 38C188.48 38 187.558 38.1166 186.678 38.3357C187.869 38.6479 189.135 39.1046 190.466 39.7442C193.239 41.0757 195.632 41.5045 197.579 41.5ZM200.286 47.2547C197.611 47.7621 193.917 47.6579 189.489 45.5308C185.348 43.5422 182.053 43.5672 179.83 44.0417C179.716 44.0662 179.604 44.0919 179.494 44.1187C179.203 44.7266 178.971 45.3658 178.804 46.0296C178.982 45.9839 179.166 45.9405 179.356 45.9C182.052 45.3244 185.862 45.3494 190.466 47.5608C194.607 49.5494 197.902 49.5244 200.125 49.0499C200.201 49.0337 200.276 49.0169 200.35 48.9996C200.358 48.8341 200.362 48.6675 200.362 48.5C200.362 48.0787 200.336 47.6631 200.286 47.2547ZM199.993 51.2155C197.344 51.6603 193.758 51.4896 189.489 49.4391C185.348 47.4505 182.053 47.4756 179.83 47.95C179.337 48.0553 178.893 48.1835 178.502 48.3189C178.501 48.3791 178.5 48.4395 178.5 48.5C178.5 54.299 183.394 59 189.431 59C194.49 59 198.747 55.6982 199.993 51.2155Z" fill="white"/>
<path d="M88.8623 87.725C88.8623 88.1456 88.7797 88.4688 88.6146 88.6945C88.4538 88.9204 88.1849 89.0332 87.8081 89.0332C87.4524 89.0332 87.2006 88.9204 87.0523 88.6945C86.9084 88.4688 86.8364 88.1456 86.8364 87.725V80.7059C86.8364 80.2853 86.9084 79.9622 87.0523 79.7364C87.2006 79.5106 87.4524 79.3977 87.8081 79.3977C88.1849 79.3977 88.4538 79.5106 88.6146 79.7364C88.7797 79.9622 88.8623 80.2853 88.8623 80.7059V87.725Z" fill="white"/>
<path d="M89.4775 85.6866C89.4775 85.2173 89.5495 84.7746 89.6935 84.3584C89.8417 83.9379 90.0618 83.5704 90.354 83.2561C90.6503 82.9418 91.0187 82.6916 91.459 82.5057C91.9036 82.3197 92.4243 82.2268 93.0213 82.2268C93.5929 82.2268 94.0988 82.3131 94.5391 82.4858C94.9795 82.6584 95.3499 82.8997 95.6505 83.2096C95.9511 83.5151 96.1797 83.8803 96.3364 84.3053C96.493 84.7259 96.5714 85.1863 96.5714 85.6866C96.5714 86.1514 96.4972 86.5919 96.3491 87.008C96.2009 87.4197 95.9786 87.7828 95.6822 88.0971C95.3859 88.407 95.0154 88.6549 94.5709 88.8409C94.1263 89.0224 93.6098 89.1131 93.0213 89.1131C92.4413 89.1131 91.929 89.0268 91.4844 88.8541C91.044 88.677 90.6736 88.4358 90.373 88.1303C90.0766 87.8204 89.8522 87.4574 89.6998 87.0413C89.5516 86.6207 89.4775 86.1691 89.4775 85.6866ZM91.5924 85.6866C91.5924 85.9788 91.6177 86.2577 91.6686 86.5233C91.7194 86.7844 91.7998 87.0147 91.9099 87.2139C92.0242 87.4131 92.1724 87.5725 92.3544 87.692C92.5365 87.8071 92.7588 87.8647 93.0213 87.8647C93.2626 87.8647 93.4722 87.8116 93.65 87.7053C93.8321 87.5991 93.9802 87.4507 94.0946 87.2604C94.2131 87.07 94.302 86.842 94.3613 86.5764C94.4206 86.3063 94.4502 86.0098 94.4502 85.6866C94.4502 85.3944 94.4227 85.1177 94.3677 84.8565C94.3168 84.5909 94.2343 84.3584 94.12 84.1592C94.0057 83.9556 93.8575 83.7962 93.6754 83.6811C93.4976 83.5616 93.2795 83.5018 93.0213 83.5018C92.763 83.5018 92.5429 83.5593 92.3608 83.6745C92.1787 83.7896 92.0306 83.9467 91.9162 84.1459C91.8019 84.3452 91.7194 84.5776 91.6686 84.8432C91.6177 85.1088 91.5924 85.3899 91.5924 85.6866Z" fill="white"/>
<path d="M101.784 87.7517C101.67 87.9731 101.53 88.1612 101.365 88.3162C101.204 88.4711 101.024 88.5995 100.825 88.7013C100.63 88.7987 100.421 88.8717 100.196 88.9205C99.9763 88.9647 99.7498 88.9869 99.5169 88.9869C99.1274 88.9869 98.7718 88.9138 98.45 88.7677C98.1282 88.6216 97.8509 88.4113 97.6181 88.1369C97.3894 87.858 97.2116 87.5171 97.0846 87.1142C96.9576 86.7113 96.894 86.2509 96.894 85.733C96.894 85.246 96.9533 84.79 97.0719 84.365C97.1904 83.94 97.3619 83.5704 97.5863 83.256C97.8149 82.9417 98.0944 82.6938 98.4246 82.5123C98.7548 82.3308 99.1317 82.24 99.555 82.24C100.038 82.24 100.465 82.3374 100.838 82.5322C101.215 82.727 101.539 83.0457 101.81 83.4884V83.3158C101.81 82.9971 101.892 82.758 102.057 82.5986C102.227 82.4348 102.459 82.3529 102.756 82.3529C102.934 82.3529 103.084 82.3839 103.207 82.4459C103.329 82.5034 103.427 82.5919 103.499 82.7115C103.571 82.8266 103.622 82.9705 103.651 83.1431C103.685 83.3113 103.702 83.5039 103.702 83.7209V88.1701C103.702 88.7102 103.636 89.1927 103.505 89.6177C103.378 90.0427 103.179 90.4013 102.908 90.6935C102.637 90.9857 102.29 91.207 101.867 91.3576C101.443 91.5125 100.94 91.59 100.355 91.59C99.9446 91.59 99.5805 91.5701 99.2629 91.5302C98.9496 91.4948 98.6786 91.4395 98.45 91.3642C98.2214 91.2801 98.0478 91.1871 97.9292 91.0853C97.815 90.9835 97.7578 90.8506 97.7578 90.6869C97.7578 90.5939 97.7705 90.5054 97.7959 90.4212C97.8213 90.3371 97.8594 90.2619 97.9102 90.1955C97.9652 90.1335 98.0351 90.0826 98.1198 90.0427C98.2087 90.0073 98.3166 89.9896 98.4436 89.9896C98.5791 89.9896 98.7146 89.9984 98.8501 90.0162C98.9898 90.0339 99.1338 90.0516 99.282 90.0693C99.4344 90.0914 99.5931 90.1113 99.7583 90.1291C99.9276 90.1467 100.11 90.1556 100.304 90.1556C100.537 90.1556 100.745 90.1313 100.927 90.0826C101.109 90.0339 101.263 89.9476 101.39 89.8236C101.517 89.6996 101.615 89.5336 101.683 89.3255C101.75 89.1219 101.784 88.8607 101.784 88.5419V87.7517ZM101.784 85.6865C101.784 85.3633 101.761 85.0689 101.714 84.8033C101.672 84.5377 101.598 84.3119 101.492 84.1259C101.386 83.9356 101.244 83.7895 101.067 83.6877C100.889 83.5814 100.666 83.5283 100.4 83.5283C100.137 83.5283 99.9192 83.5836 99.7456 83.6943C99.5762 83.805 99.4407 83.9577 99.3391 84.1525C99.2375 84.3473 99.1656 84.5753 99.1232 84.8365C99.0851 85.0977 99.0661 85.3766 99.0661 85.6732C99.0661 86.3505 99.1804 86.8597 99.409 87.2005C99.6376 87.5414 99.9699 87.7119 100.406 87.7119C100.609 87.7075 100.793 87.6676 100.959 87.5923C101.128 87.5126 101.274 87.3909 101.397 87.2271C101.52 87.0633 101.615 86.8552 101.683 86.6029C101.75 86.3505 101.784 86.0451 101.784 85.6865Z" fill="white"/>
<path d="M104.285 85.6866C104.285 85.2173 104.357 84.7746 104.501 84.3584C104.649 83.9379 104.869 83.5704 105.162 83.2561C105.458 82.9418 105.826 82.6916 106.267 82.5057C106.711 82.3197 107.232 82.2268 107.829 82.2268C108.4 82.2268 108.906 82.3131 109.347 82.4858C109.787 82.6584 110.157 82.8997 110.458 83.2096C110.759 83.5151 110.987 83.8803 111.144 84.3053C111.301 84.7259 111.379 85.1863 111.379 85.6866C111.379 86.1514 111.305 86.5919 111.157 87.008C111.008 87.4197 110.786 87.7828 110.49 88.0971C110.193 88.407 109.823 88.6549 109.378 88.8409C108.934 89.0224 108.417 89.1131 107.829 89.1131C107.249 89.1131 106.737 89.0268 106.292 88.8541C105.852 88.677 105.481 88.4358 105.181 88.1303C104.884 87.8204 104.66 87.4574 104.507 87.0413C104.359 86.6207 104.285 86.1691 104.285 85.6866ZM106.4 85.6866C106.4 85.9788 106.425 86.2577 106.476 86.5233C106.527 86.7844 106.607 87.0147 106.718 87.2139C106.832 87.4131 106.98 87.5725 107.162 87.692C107.344 87.8071 107.566 87.8647 107.829 87.8647C108.07 87.8647 108.28 87.8116 108.458 87.7053C108.64 87.5991 108.788 87.4507 108.902 87.2604C109.021 87.07 109.11 86.842 109.169 86.5764C109.228 86.3063 109.258 86.0098 109.258 85.6866C109.258 85.3944 109.23 85.1177 109.175 84.8565C109.124 84.5909 109.042 84.3584 108.928 84.1592C108.813 83.9556 108.665 83.7962 108.483 83.6811C108.305 83.5616 108.087 83.5018 107.829 83.5018C107.571 83.5018 107.35 83.5593 107.168 83.6745C106.986 83.7896 106.838 83.9467 106.724 84.1459C106.61 84.3452 106.527 84.5776 106.476 84.8432C106.425 85.1088 106.4 85.3899 106.4 85.6866Z" fill="white"/>
<path d="M114.103 79.9887C114.103 80.1348 114.071 80.2654 114.007 80.3805C113.944 80.4912 113.861 80.5841 113.76 80.6594C113.658 80.7347 113.54 80.7922 113.404 80.8321C113.273 80.8675 113.137 80.8852 112.998 80.8852C112.849 80.8852 112.708 80.8653 112.572 80.8254C112.441 80.7856 112.324 80.7281 112.223 80.6528C112.121 80.5731 112.041 80.4779 111.981 80.3672C111.922 80.2566 111.893 80.1304 111.893 79.9887C111.893 79.8603 111.92 79.743 111.975 79.6368C112.034 79.5261 112.113 79.4309 112.21 79.3512C112.307 79.2715 112.424 79.2096 112.559 79.1653C112.695 79.121 112.843 79.0989 113.004 79.0989C113.144 79.0989 113.279 79.1188 113.41 79.1586C113.546 79.1985 113.664 79.256 113.766 79.3313C113.868 79.4066 113.948 79.4995 114.007 79.6102C114.071 79.7209 114.103 79.8471 114.103 79.9887ZM114.007 87.725C114.007 88.1456 113.925 88.4688 113.76 88.6945C113.599 88.9204 113.33 89.0332 112.953 89.0332C112.598 89.0332 112.346 88.9204 112.197 88.6945C112.053 88.4688 111.981 88.1456 111.981 87.725V83.661C111.981 83.2404 112.053 82.9172 112.197 82.6915C112.346 82.4657 112.598 82.3528 112.953 82.3528C113.33 82.3528 113.599 82.4657 113.76 82.6915C113.925 82.9172 114.007 83.2404 114.007 83.661V87.725Z" fill="white"/>
<path d="M116.928 85.6732C116.928 85.9698 116.949 86.2465 116.991 86.5033C117.038 86.7601 117.114 86.9858 117.22 87.1806C117.33 87.371 117.474 87.5215 117.652 87.6322C117.834 87.7429 118.058 87.7982 118.325 87.7982C118.57 87.7982 118.776 87.7451 118.941 87.6388C119.11 87.5282 119.246 87.3776 119.348 87.1873C119.449 86.9924 119.521 86.7645 119.563 86.5033C119.61 86.2421 119.633 85.9587 119.633 85.6533C119.633 85.4098 119.616 85.1619 119.582 84.9096C119.549 84.6527 119.485 84.4204 119.392 84.2123C119.299 84.0042 119.17 83.8337 119.004 83.7009C118.839 83.5681 118.624 83.5017 118.357 83.5017C118.09 83.5017 117.863 83.546 117.677 83.6346C117.495 83.7231 117.347 83.8581 117.233 84.0396C117.122 84.2211 117.044 84.4491 116.998 84.7236C116.951 84.9936 116.928 85.3102 116.928 85.6732ZM116.921 83.6611C117.027 83.4265 117.163 83.2206 117.328 83.0435C117.493 82.8664 117.675 82.7181 117.874 82.5986C118.073 82.4791 118.28 82.3905 118.496 82.333C118.717 82.271 118.935 82.24 119.15 82.24C119.54 82.24 119.892 82.3308 120.205 82.5123C120.518 82.6938 120.785 82.9417 121.005 83.256C121.229 83.5659 121.401 83.9334 121.52 84.3584C121.638 84.7789 121.697 85.2305 121.697 85.713C121.697 86.2133 121.633 86.6715 121.507 87.0876C121.384 87.5038 121.208 87.8624 120.979 88.1634C120.755 88.4601 120.484 88.6924 120.166 88.8607C119.853 89.0289 119.504 89.113 119.119 89.113C118.645 89.113 118.221 88.9979 117.849 88.7677C117.476 88.5375 117.167 88.2143 116.921 87.7982V90.1888C116.921 90.6094 116.839 90.9326 116.674 91.1583C116.513 91.3841 116.244 91.497 115.867 91.497C115.512 91.497 115.26 91.3841 115.111 91.1583C114.967 90.9326 114.896 90.6094 114.896 90.1888V83.6611C114.896 83.2405 114.967 82.9173 115.111 82.6916C115.26 82.4658 115.512 82.3529 115.867 82.3529C116.244 82.3529 116.513 82.4658 116.674 82.6916C116.839 82.9173 116.921 83.2405 116.921 83.6611Z" fill="white"/>
<path d="M123.932 84.1327C123.932 84.3053 124.004 84.4403 124.147 84.5377C124.292 84.6307 124.49 84.7082 124.745 84.7702C124.986 84.8277 125.233 84.8831 125.488 84.9361C125.742 84.9893 125.989 85.0513 126.231 85.1221C126.472 85.1885 126.698 85.2682 126.91 85.3611C127.122 85.4541 127.308 85.5714 127.469 85.7131C127.63 85.8504 127.757 86.0186 127.85 86.2178C127.943 86.4126 127.99 86.6473 127.99 86.9217C127.99 87.267 127.922 87.5747 127.786 87.8447C127.651 88.1104 127.459 88.3361 127.209 88.5221C126.963 88.708 126.669 88.8519 126.326 88.9538C125.983 89.0556 125.604 89.1087 125.189 89.1131C124.796 89.1131 124.416 89.0866 124.052 89.0334C123.688 88.9847 123.364 88.9072 123.08 88.801C122.801 88.6947 122.577 88.5642 122.407 88.4092C122.238 88.2498 122.154 88.0639 122.154 87.8514C122.154 87.6654 122.211 87.5216 122.325 87.4197C122.439 87.318 122.585 87.267 122.763 87.267C122.831 87.267 122.911 87.2803 123.004 87.3069C123.098 87.3334 123.199 87.3666 123.309 87.4065C123.419 87.4463 123.536 87.4906 123.659 87.5393C123.785 87.5836 123.917 87.6234 124.052 87.6588C124.222 87.7075 124.395 87.7474 124.573 87.7784C124.755 87.8049 124.941 87.8182 125.132 87.8182C125.25 87.8182 125.367 87.8071 125.481 87.785C125.595 87.7584 125.697 87.7208 125.786 87.6721C125.879 87.619 125.955 87.5526 126.015 87.4729C126.074 87.3932 126.11 87.2958 126.123 87.1807C126.135 87.1541 126.146 87.1276 126.154 87.101C126.163 87.0745 126.167 87.0435 126.167 87.008C126.167 86.8841 126.112 86.7734 126.002 86.676C125.896 86.5786 125.746 86.5011 125.551 86.4436C125.225 86.3639 124.914 86.2909 124.617 86.2245C124.321 86.158 124.046 86.0872 123.792 86.012C123.542 85.9367 123.313 85.8504 123.106 85.7529C122.903 85.6556 122.729 85.536 122.585 85.3944C122.446 85.2527 122.335 85.0822 122.255 84.8831C122.179 84.6838 122.141 84.4425 122.141 84.1592C122.141 83.8538 122.206 83.5815 122.337 83.3424C122.473 83.0989 122.666 82.8953 122.916 82.7315C123.165 82.5677 123.468 82.4437 123.824 82.3596C124.179 82.2711 124.581 82.2268 125.03 82.2268C125.834 82.2268 126.446 82.3286 126.866 82.5322C127.289 82.7315 127.501 82.9927 127.501 83.3159C127.501 83.4974 127.443 83.6368 127.329 83.7342C127.215 83.8272 127.077 83.8737 126.917 83.8737C126.832 83.8737 126.743 83.8582 126.65 83.8272C126.561 83.7918 126.453 83.7541 126.326 83.7143C126.199 83.67 126.046 83.6324 125.869 83.6014C125.695 83.566 125.479 83.5483 125.221 83.5483C125.026 83.5483 124.848 83.5571 124.687 83.5748C124.531 83.5925 124.395 83.6235 124.281 83.6678C124.171 83.7121 124.084 83.7718 124.021 83.8471C123.961 83.9224 123.932 84.0175 123.932 84.1327Z" fill="white"/>
<path d="M130.567 86.5696C130.567 86.7776 130.593 86.9592 130.644 87.1141C130.698 87.2691 130.773 87.3997 130.866 87.5059C130.959 87.6078 131.067 87.6852 131.189 87.7383C131.317 87.7871 131.452 87.8114 131.596 87.8114C131.765 87.8114 131.929 87.7848 132.085 87.7317C132.242 87.6786 132.379 87.5967 132.498 87.486C132.621 87.3753 132.718 87.2359 132.79 87.0676C132.862 86.8994 132.898 86.7024 132.898 86.4766V83.661C132.898 83.2404 132.97 82.9172 133.114 82.6915C133.262 82.4657 133.514 82.3528 133.87 82.3528C134.246 82.3528 134.515 82.4657 134.676 82.6915C134.841 82.9172 134.924 83.2404 134.924 83.661V87.7251C134.924 88.1456 134.841 88.4688 134.676 88.6946C134.515 88.9204 134.246 89.0333 133.87 89.0333C133.514 89.0333 133.262 88.9204 133.114 88.6946C132.97 88.4688 132.898 88.1456 132.898 87.7251C132.809 87.9287 132.693 88.1146 132.549 88.2829C132.409 88.4511 132.244 88.5972 132.053 88.7211C131.867 88.8407 131.66 88.9336 131.431 89.0001C131.207 89.0665 130.963 89.0997 130.701 89.0997C130.417 89.0997 130.144 89.0487 129.881 88.947C129.623 88.8407 129.395 88.6857 129.196 88.4821C128.997 88.274 128.838 88.0172 128.719 87.7118C128.601 87.4063 128.542 87.0499 128.542 86.6426V83.661C128.542 83.2404 128.614 82.9172 128.757 82.6915C128.906 82.4657 129.157 82.3528 129.513 82.3528C129.89 82.3528 130.159 82.4657 130.32 82.6915C130.485 82.9172 130.567 83.2404 130.567 83.661V86.5696Z" fill="white"/>
<path d="M135.843 83.6611C135.843 83.2405 135.915 82.9173 136.059 82.6916C136.207 82.4658 136.459 82.3529 136.815 82.3529C137.192 82.3529 137.461 82.4658 137.622 82.6916C137.787 82.9173 137.87 83.2405 137.87 83.6611C137.954 83.4486 138.068 83.256 138.213 83.0834C138.361 82.9063 138.528 82.7558 138.714 82.6318C138.905 82.5079 139.11 82.4127 139.33 82.3462C139.55 82.2754 139.779 82.24 140.016 82.24C140.236 82.24 140.452 82.271 140.664 82.333C140.879 82.3905 141.079 82.4857 141.261 82.6185C141.447 82.7469 141.61 82.9107 141.75 83.1099C141.89 83.3091 141.997 83.5482 142.074 83.8271C142.205 83.5305 142.359 83.2804 142.537 83.0767C142.715 82.8731 142.908 82.7092 143.115 82.5853C143.322 82.4613 143.539 82.3728 143.763 82.3197C143.992 82.2666 144.22 82.24 144.449 82.24C144.72 82.24 144.978 82.2909 145.224 82.3927C145.473 82.4945 145.691 82.6495 145.878 82.8576C146.068 83.0612 146.219 83.3202 146.329 83.6346C146.443 83.9444 146.5 84.3075 146.5 84.7236V87.7251C146.5 88.1457 146.417 88.4689 146.252 88.6947C146.092 88.9205 145.822 89.0333 145.446 89.0333C145.09 89.0333 144.838 88.9205 144.69 88.6947C144.546 88.4689 144.474 88.1457 144.474 87.7251V84.8166C144.474 84.6173 144.449 84.4402 144.398 84.2853C144.347 84.1259 144.275 83.9931 144.182 83.8869C144.093 83.7762 143.987 83.6943 143.864 83.6412C143.742 83.5836 143.61 83.5548 143.471 83.5548C143.297 83.5548 143.132 83.5836 142.976 83.6412C142.819 83.6987 142.681 83.7873 142.563 83.9068C142.448 84.0263 142.355 84.1791 142.283 84.365C142.215 84.5509 142.182 84.7745 142.182 85.0357V87.7251C142.182 88.1457 142.099 88.4689 141.934 88.6947C141.773 88.9205 141.504 89.0333 141.127 89.0333C140.772 89.0333 140.52 88.9205 140.372 88.6947C140.227 88.4689 140.155 88.1457 140.155 87.7251V84.9427C140.155 84.4868 140.064 84.1414 139.883 83.9068C139.705 83.6722 139.461 83.5548 139.152 83.5548C138.97 83.5548 138.801 83.5858 138.644 83.6478C138.487 83.7098 138.352 83.8005 138.238 83.9201C138.123 84.0396 138.032 84.1879 137.964 84.365C137.901 84.5421 137.87 84.7457 137.87 84.9759V87.7251C137.87 88.1457 137.787 88.4689 137.622 88.6947C137.461 88.9205 137.192 89.0333 136.815 89.0333C136.459 89.0333 136.207 88.9205 136.059 88.6947C135.915 88.4689 135.843 88.1457 135.843 87.7251V83.6611Z" fill="white"/>
<path d="M73.629 87.9001C71.8332 87.9001 70.3774 86.3779 70.3774 84.5001C70.3774 82.6223 71.8332 81.1001 73.629 81.1001C75.4248 81.1001 76.8806 82.6223 76.8806 84.5001C76.8806 86.3779 75.4248 87.9001 73.629 87.9001Z" fill="white"/>
<path d="M67.3299 85.6614C66.3876 85.8352 65.7417 86.787 66.1034 87.7132C66.6084 89.0064 67.4141 90.1585 68.4585 91.0588C69.9521 92.3461 71.8358 93.034 73.7711 92.9987C75.7063 92.9634 77.566 92.2072 79.0157 90.8661C80.0294 89.9283 80.7961 88.7474 81.2577 87.4366C81.5883 86.4977 80.911 85.5701 79.9634 85.4309C79.016 85.2916 78.1653 86.0128 77.6972 86.8854C77.4436 87.3584 77.1142 87.7876 76.7197 88.1526C75.8879 88.922 74.8209 89.3559 73.7106 89.3762C72.6003 89.3964 71.5194 89.0018 70.6625 88.2631C70.256 87.9128 69.9126 87.4959 69.6433 87.0324C69.1464 86.1774 68.2722 85.4877 67.3299 85.6614Z" fill="white"/>
<path d="M81.6951 85.5622C81.7366 85.2142 81.758 84.8597 81.758 84.5C81.758 79.8056 78.1185 76 73.629 76C69.1395 76 65.5 79.8056 65.5 84.5C65.5 84.9616 65.5352 85.4147 65.6029 85.8564C65.9763 85.3219 66.5591 84.9404 67.1885 84.8243C67.8696 84.6988 68.4885 84.8715 69.0119 85.1943C68.981 84.9675 68.965 84.7357 68.965 84.5C68.965 81.8066 71.0531 79.6231 73.629 79.6231C76.2049 79.6231 78.293 81.8066 78.293 84.5C78.293 84.6776 78.2839 84.853 78.2663 85.0256C78.7785 84.6838 79.3915 84.4884 80.0764 84.5891C80.7092 84.6821 81.3041 85.0419 81.6951 85.5622Z" fill="white"/>
<path d="M183.47 76.6875H185.642V88.441H189.216V90.3999H183.47V76.6875Z" fill="white"/>
<path d="M193.321 90.5959C192.254 90.5959 191.438 90.2955 190.872 89.6948C190.306 89.094 190.023 88.2452 190.023 87.1482V79.9394C190.023 78.8424 190.306 77.9935 190.872 77.3928C191.438 76.7921 192.254 76.4917 193.321 76.4917C194.387 76.4917 195.203 76.7921 195.769 77.3928C196.335 77.9935 196.618 78.8424 196.618 79.9394V87.1482C196.618 88.2452 196.335 89.094 195.769 89.6948C195.203 90.2955 194.387 90.5959 193.321 90.5959ZM193.321 88.637C194.071 88.637 194.446 88.1864 194.446 87.2853V79.8023C194.446 78.9012 194.071 78.4506 193.321 78.4506C192.57 78.4506 192.195 78.9012 192.195 79.8023V87.2853C192.195 88.1864 192.57 88.637 193.321 88.637Z" fill="white"/>
<path d="M201.168 90.5959C200.114 90.5959 199.311 90.3021 198.759 89.7144C198.206 89.1137 197.929 88.2582 197.929 87.1482V79.9394C197.929 78.8293 198.206 77.9805 198.759 77.3928C199.311 76.7921 200.114 76.4917 201.168 76.4917C202.221 76.4917 203.024 76.7921 203.577 77.3928C204.13 77.9805 204.406 78.8293 204.406 79.9394V81.1147H202.352V79.8023C202.352 78.9012 201.977 78.4506 201.227 78.4506C200.477 78.4506 200.101 78.9012 200.101 79.8023V87.3049C200.101 88.193 200.477 88.637 201.227 88.637C201.977 88.637 202.352 88.193 202.352 87.3049V84.6212H201.266V82.6623H204.406V87.1482C204.406 88.2582 204.13 89.1137 203.577 89.7144C203.024 90.3021 202.221 90.5959 201.168 90.5959Z" fill="white"/>
<path d="M208.94 90.5959C207.874 90.5959 207.058 90.2955 206.492 89.6948C205.926 89.094 205.643 88.2452 205.643 87.1482V79.9394C205.643 78.8424 205.926 77.9935 206.492 77.3928C207.058 76.7921 207.874 76.4917 208.94 76.4917C210.007 76.4917 210.823 76.7921 211.389 77.3928C211.955 77.9935 212.238 78.8424 212.238 79.9394V87.1482C212.238 88.2452 211.955 89.094 211.389 89.6948C210.823 90.2955 210.007 90.5959 208.94 90.5959ZM208.94 88.637C209.691 88.637 210.066 88.1864 210.066 87.2853V79.8023C210.066 78.9012 209.691 78.4506 208.94 78.4506C208.19 78.4506 207.815 78.9012 207.815 79.8023V87.2853C207.815 88.1864 208.19 88.637 208.94 88.637Z" fill="white"/>
<path d="M213.711 76.6875H215.883V90.3999H213.711V76.6875Z" fill="white"/>
<path d="M217.51 76.6875H220.709C221.788 76.6875 222.598 76.9748 223.138 77.5494C223.678 78.124 223.947 78.9664 223.947 80.0764V81.4281C223.947 82.5381 223.678 83.3804 223.138 83.9551C222.598 84.5297 221.788 84.817 220.709 84.817H219.682V90.3999H217.51V76.6875ZM220.709 82.8581C221.064 82.8581 221.327 82.7601 221.499 82.5642C221.683 82.3683 221.775 82.0353 221.775 81.5652V79.9393C221.775 79.4692 221.683 79.1361 221.499 78.9402C221.327 78.7444 221.064 78.6464 220.709 78.6464H219.682V82.8581H220.709Z" fill="white"/>
<path d="M228.027 90.5959C226.975 90.5959 226.178 90.3021 225.638 89.7144C225.099 89.1137 224.829 88.2582 224.829 87.1482V86.3646H226.882V87.3049C226.882 88.193 227.258 88.637 228.008 88.637C228.377 88.637 228.653 88.5325 228.837 88.3236C229.035 88.1015 229.133 87.7489 229.133 87.2657C229.133 86.6911 229.002 86.1883 228.739 85.7574C228.476 85.3133 227.988 84.7844 227.277 84.1706C226.382 83.3871 225.757 82.6819 225.401 82.055C225.046 81.4151 224.868 80.6968 224.868 79.9002C224.868 78.8163 225.145 77.9805 225.698 77.3928C226.251 76.7921 227.054 76.4917 228.107 76.4917C229.147 76.4917 229.93 76.7921 230.456 77.3928C230.996 77.9805 231.266 78.8293 231.266 79.9394V80.5075H229.212V79.8023C229.212 79.3321 229.12 78.9926 228.936 78.7836C228.752 78.5616 228.482 78.4506 228.126 78.4506C227.402 78.4506 227.041 78.8881 227.041 79.7631C227.041 80.2593 227.172 80.723 227.435 81.1539C227.712 81.5849 228.205 82.1072 228.917 82.721C229.825 83.5046 230.45 84.2164 230.792 84.8563C231.134 85.4962 231.306 86.2471 231.306 87.109C231.306 88.2321 231.022 89.094 230.456 89.6948C229.903 90.2955 229.094 90.5959 228.027 90.5959Z" fill="white"/>
<path d="M235.71 90.5958C234.657 90.5958 233.854 90.302 233.301 89.7143C232.748 89.1136 232.472 88.2582 232.472 87.1481V76.6875H234.644V87.3048C234.644 87.7749 234.736 88.1145 234.92 88.3235C235.118 88.5324 235.394 88.6369 235.749 88.6369C236.105 88.6369 236.375 88.5324 236.559 88.3235C236.756 88.1145 236.855 87.7749 236.855 87.3048V76.6875H238.948V87.1481C238.948 88.2582 238.672 89.1136 238.119 89.7143C237.566 90.302 236.763 90.5958 235.71 90.5958Z" fill="white"/>
<path d="M240.496 76.6875H243.596L244.978 86.5016H245.017L246.4 76.6875H249.5V90.3999H247.446V80.0177H247.407L245.827 90.3999H244.01L242.431 80.0177H242.392V90.3999H240.496V76.6875Z" fill="white"/>
<path d="M162.5 90.4C165.172 90.4 167.339 88.251 167.339 85.6001C167.339 82.9491 165.172 80.8 162.5 80.8V84.16C163.302 84.16 163.952 84.8047 163.952 85.6001C163.952 86.3953 163.302 87.04 162.5 87.04V90.4Z" fill="white"/>
<path d="M178.628 82.4C177.801 82.1402 176.921 82 176.007 82C171.22 82 167.338 85.8504 167.338 90.6C167.338 91.0767 167.377 91.5444 167.453 92H172.839C172.647 91.5723 172.54 91.0986 172.54 90.6C172.54 88.7001 174.092 87.16 176.007 87.16C177.054 87.16 177.992 87.6201 178.628 88.3475V82.4Z" fill="white"/>
<path d="M163.351 76C163.752 79.6 166.828 82.4 170.564 82.4C174.3 82.4 177.376 79.6 177.778 76H172.587C172.267 76.7969 171.482 77.36 170.564 77.36C169.646 77.36 168.861 76.7969 168.541 76H163.351Z" fill="white"/>
</svg>
