<svg width="113" height="75" viewBox="0 0 113 75" fill="none" xmlns="http://www.w3.org/2000/svg">
<g clip-path="url(#clip0_35_7673)">
<path d="M0 0H113V75H0V0Z" fill="#EE1C25"/>
<path d="M18.8333 7.5L25.4777 27.8513L8.07568 15.2738H29.5909L12.1889 27.8513L18.8333 7.5Z" fill="#FFFF00"/>
<path d="M39.1403 4.04834L38.5121 11.154L34.8218 5.03599L41.4217 7.82994L34.4357 9.42831L39.1403 4.04834Z" fill="#FFFF00"/>
<path d="M47.9035 12.39L44.5549 18.6962L43.5386 11.6319L48.5322 16.7567L41.4706 15.5308L47.9035 12.39Z" fill="#FFFF00"/>
<path d="M48.7387 24.9663L43.0975 29.3639L45.0641 22.5014L47.5234 29.2084L41.5785 25.2213L48.7387 24.9663Z" fill="#FFFF00"/>
<path d="M38.9961 30.242L38.6644 37.3675L34.7226 31.407L41.4331 33.9262L34.5197 35.8115L38.9961 30.242Z" fill="#FFFF00"/>
</g>
<defs>
<clipPath id="clip0_35_7673">
<rect width="113" height="75" rx="10" fill="white"/>
</clipPath>
</defs>
</svg>
