<svg width="113" height="75" viewBox="0 0 113 75" fill="none" xmlns="http://www.w3.org/2000/svg">
<g clip-path="url(#clip0_35_7680)">
<path d="M0 0H113V75H0V0Z" fill="#003399"/>
<path d="M56.5 8.33301L55.2067 12.2957L57.1969 12.9395L56.5 8.33301Z" fill="#FFCC00"/>
<path d="M56.5 8.33301L57.7933 12.2957L55.8031 12.9395L56.5 8.33301Z" fill="#FFCC00"/>
<path d="M60.4783 11.2163L56.2953 11.2119L56.2975 13.2909L60.4783 11.2163Z" fill="#FFCC00"/>
<path d="M60.4805 11.2139L57.0966 13.6608L55.8646 11.9731L60.4805 11.2139Z" fill="#FFCC00"/>
<path d="M58.9602 15.8721L57.6652 11.9081L55.6767 12.5507L58.9602 15.8721Z" fill="#FFCC00"/>
<path d="M58.9614 15.8706L55.5743 13.4201L56.8031 11.736L58.9614 15.8706Z" fill="#FFCC00"/>
<path d="M52.522 11.2163L56.705 11.2119L56.7027 13.2909L52.522 11.2163Z" fill="#FFCC00"/>
<path d="M52.5198 11.2139L55.9037 13.6608L57.1357 11.9731L52.5198 11.2139Z" fill="#FFCC00"/>
<path d="M54.04 15.8721L55.3351 11.9081L57.3235 12.5507L54.04 15.8721Z" fill="#FFCC00"/>
<path d="M54.0388 15.8706L57.4259 13.4201L56.1972 11.736L54.0388 15.8706Z" fill="#FFCC00"/>
<path d="M56.5 58.333L55.2067 62.2957L57.1969 62.9395L56.5 58.333Z" fill="#FFCC00"/>
<path d="M56.5 58.333L57.7933 62.2957L55.8031 62.9395L56.5 58.333Z" fill="#FFCC00"/>
<path d="M60.478 61.2163L56.295 61.2119L56.2973 63.2909L60.478 61.2163Z" fill="#FFCC00"/>
<path d="M60.4802 61.2139L57.0963 63.6608L55.8643 61.9731L60.4802 61.2139Z" fill="#FFCC00"/>
<path d="M58.96 65.8721L57.6649 61.9081L55.6765 62.5507L58.96 65.8721Z" fill="#FFCC00"/>
<path d="M58.9612 65.8706L55.5741 63.4201L56.8028 61.736L58.9612 65.8706Z" fill="#FFCC00"/>
<path d="M52.522 61.2163L56.705 61.2119L56.7027 63.2909L52.522 61.2163Z" fill="#FFCC00"/>
<path d="M52.5198 61.2139L55.9037 63.6608L57.1357 61.9731L52.5198 61.2139Z" fill="#FFCC00"/>
<path d="M54.04 65.8721L55.3351 61.9081L57.3235 62.5507L54.04 65.8721Z" fill="#FFCC00"/>
<path d="M54.0388 65.8706L57.4259 63.4201L56.1972 61.736L54.0388 65.8706Z" fill="#FFCC00"/>
<path d="M31.3889 33.333L30.0956 37.2957L32.0858 37.9395L31.3889 33.333Z" fill="#FFCC00"/>
<path d="M31.3889 33.333L32.6822 37.2957L30.692 37.9395L31.3889 33.333Z" fill="#FFCC00"/>
<path d="M35.3674 36.2163L31.1845 36.2119L31.1867 38.2909L35.3674 36.2163Z" fill="#FFCC00"/>
<path d="M35.3696 36.2144L31.9857 38.6612L30.7537 36.9736L35.3696 36.2144Z" fill="#FFCC00"/>
<path d="M33.8491 40.8721L32.5541 36.9081L30.5657 37.5507L33.8491 40.8721Z" fill="#FFCC00"/>
<path d="M33.8503 40.8711L30.4632 38.4206L31.692 36.7365L33.8503 40.8711Z" fill="#FFCC00"/>
<path d="M27.4106 36.2163L31.5936 36.2119L31.5914 38.2909L27.4106 36.2163Z" fill="#FFCC00"/>
<path d="M27.4084 36.2144L30.7923 38.6612L32.0243 36.9736L27.4084 36.2144Z" fill="#FFCC00"/>
<path d="M28.929 40.8721L30.224 36.9081L32.2124 37.5507L28.929 40.8721Z" fill="#FFCC00"/>
<path d="M28.9277 40.8711L32.3149 38.4206L31.0861 36.7365L28.9277 40.8711Z" fill="#FFCC00"/>
<path d="M41.4829 19.2261L44.8701 16.7755L43.6414 15.0915L41.4829 19.2261Z" fill="#FFCC00"/>
<path d="M41.4841 19.2275L42.7792 15.2635L44.7676 15.906L41.4841 19.2275Z" fill="#FFCC00"/>
<path d="M39.9636 14.5684L43.3484 17.0163L44.5795 15.3296L39.9636 14.5684Z" fill="#FFCC00"/>
<path d="M39.9648 14.5693L44.1488 14.567L44.1476 16.6479L39.9648 14.5693Z" fill="#FFCC00"/>
<path d="M43.946 11.6885L42.6509 15.6525L44.6393 16.295L43.946 11.6885Z" fill="#FFCC00"/>
<path d="M43.946 11.6885L45.2375 15.6499L43.2455 16.295L43.946 11.6885Z" fill="#FFCC00"/>
<path d="M46.4033 19.2261L43.0186 16.7783L44.2498 15.0915L46.4033 19.2261Z" fill="#FFCC00"/>
<path d="M46.4045 19.2246L45.1129 15.263L43.1211 15.908L46.4045 19.2246Z" fill="#FFCC00"/>
<path d="M47.9248 14.5664L44.538 17.0165L43.3089 15.332L47.9248 14.5664Z" fill="#FFCC00"/>
<path d="M47.9248 14.5674L43.7406 14.5693L43.7396 16.6507L47.9248 14.5674Z" fill="#FFCC00"/>
<path d="M37.2188 28.3721L35.9236 24.408L33.9353 25.0505L37.2188 28.3721Z" fill="#FFCC00"/>
<path d="M37.2202 28.3706L33.833 25.9201L35.0617 24.236L37.2202 28.3706Z" fill="#FFCC00"/>
<path d="M32.3 28.3711L35.6848 25.9233L34.4536 24.2365L32.3 28.3711Z" fill="#FFCC00"/>
<path d="M32.2988 28.3696L33.5905 24.4081L35.5823 25.053L32.2988 28.3696Z" fill="#FFCC00"/>
<path d="M30.7786 23.7109L34.1653 26.161L35.3944 24.4765L30.7786 23.7109Z" fill="#FFCC00"/>
<path d="M30.7786 23.7119L34.9628 23.7138L34.9637 25.7952L30.7786 23.7119Z" fill="#FFCC00"/>
<path d="M38.7393 23.7129L35.3545 26.1608L34.1234 24.4741L38.7393 23.7129Z" fill="#FFCC00"/>
<path d="M38.7383 23.7139L34.5543 23.7115L34.5555 25.7924L38.7383 23.7139Z" fill="#FFCC00"/>
<path d="M34.7571 20.8325L36.0522 24.7965L34.0638 25.439L34.7571 20.8325Z" fill="#FFCC00"/>
<path d="M34.7571 20.8325L33.4656 24.794L35.4576 25.439L34.7571 20.8325Z" fill="#FFCC00"/>
<path d="M38.7292 48.7197L34.5472 48.7136L34.5503 50.7907L38.7292 48.7197Z" fill="#FFCC00"/>
<path d="M38.7324 48.7168L35.3494 51.1628L34.1165 49.4742L38.7324 48.7168Z" fill="#FFCC00"/>
<path d="M37.2119 53.376L35.914 49.4099L33.9284 50.0504L37.2119 53.376Z" fill="#FFCC00"/>
<path d="M37.2153 53.3726L33.8261 50.9198L35.0528 49.238L37.2153 53.3726Z" fill="#FFCC00"/>
<path d="M32.2939 53.3726L35.6778 50.9257L34.4457 49.238L32.2939 53.3726Z" fill="#FFCC00"/>
<path d="M32.292 53.3706L33.5824 49.4099L35.5755 50.0557L32.292 53.3706Z" fill="#FFCC00"/>
<path d="M34.7476 45.8345L36.0448 49.8L34.0586 50.441L34.7476 45.8345Z" fill="#FFCC00"/>
<path d="M34.7478 45.8345L33.4585 49.7944L35.4527 50.441L34.7478 45.8345Z" fill="#FFCC00"/>
<path d="M30.7712 48.7139L34.9552 48.7163L34.9564 50.7972L30.7712 48.7139Z" fill="#FFCC00"/>
<path d="M30.7712 48.7124L34.1582 51.1627L35.3871 49.4785L30.7712 48.7124Z" fill="#FFCC00"/>
<path d="M47.9241 57.8706L43.742 57.8644L43.7451 59.9416L47.9241 57.8706Z" fill="#FFCC00"/>
<path d="M47.927 57.8677L44.5439 60.3137L43.3111 58.6251L47.927 57.8677Z" fill="#FFCC00"/>
<path d="M46.4067 62.5269L45.1088 58.5608L43.1233 59.2013L46.4067 62.5269Z" fill="#FFCC00"/>
<path d="M46.4102 62.5234L43.0209 60.0707L44.2476 58.3889L46.4102 62.5234Z" fill="#FFCC00"/>
<path d="M41.4888 62.5234L44.8726 60.0766L43.6405 58.3889L41.4888 62.5234Z" fill="#FFCC00"/>
<path d="M41.4868 62.5215L42.7772 58.5608L44.7703 59.2066L41.4868 62.5215Z" fill="#FFCC00"/>
<path d="M43.9424 54.9854L45.2396 58.9509L43.2534 59.5919L43.9424 54.9854Z" fill="#FFCC00"/>
<path d="M43.9424 54.9854L42.6531 58.9453L44.6472 59.5919L43.9424 54.9854Z" fill="#FFCC00"/>
<path d="M39.9661 57.8647L44.15 57.8672L44.1512 59.9481L39.9661 57.8647Z" fill="#FFCC00"/>
<path d="M39.9661 57.8633L43.3531 60.3136L44.5819 58.6294L39.9661 57.8633Z" fill="#FFCC00"/>
<path d="M81.6113 33.333L82.9046 37.2957L80.9144 37.9395L81.6113 33.333Z" fill="#FFCC00"/>
<path d="M81.6113 33.333L80.318 37.2957L82.3082 37.9395L81.6113 33.333Z" fill="#FFCC00"/>
<path d="M77.6328 36.2163L81.8158 36.2119L81.8136 38.2909L77.6328 36.2163Z" fill="#FFCC00"/>
<path d="M77.6306 36.2144L81.0145 38.6612L82.2465 36.9736L77.6306 36.2144Z" fill="#FFCC00"/>
<path d="M79.1511 40.8721L80.4462 36.9081L82.4346 37.5507L79.1511 40.8721Z" fill="#FFCC00"/>
<path d="M79.1499 40.8711L82.537 38.4206L81.3083 36.7365L79.1499 40.8711Z" fill="#FFCC00"/>
<path d="M85.5896 36.2163L81.4066 36.2119L81.4088 38.2909L85.5896 36.2163Z" fill="#FFCC00"/>
<path d="M85.5918 36.2144L82.2079 38.6612L80.9759 36.9736L85.5918 36.2144Z" fill="#FFCC00"/>
<path d="M84.0713 40.8721L82.7763 36.9081L80.7878 37.5507L84.0713 40.8721Z" fill="#FFCC00"/>
<path d="M84.0725 40.8711L80.6854 38.4206L81.9141 36.7365L84.0725 40.8711Z" fill="#FFCC00"/>
<path d="M71.5173 19.2261L68.1302 16.7755L69.3589 15.0915L71.5173 19.2261Z" fill="#FFCC00"/>
<path d="M71.5161 19.2275L70.221 15.2635L68.2326 15.906L71.5161 19.2275Z" fill="#FFCC00"/>
<path d="M73.0364 14.5688L69.6516 17.0168L68.4205 15.3301L73.0364 14.5688Z" fill="#FFCC00"/>
<path d="M73.0354 14.5698L68.8514 14.5674L68.8526 16.6484L73.0354 14.5698Z" fill="#FFCC00"/>
<path d="M69.0542 11.6885L70.3493 15.6525L68.361 16.295L69.0542 11.6885Z" fill="#FFCC00"/>
<path d="M69.0542 11.6885L67.7627 15.6499L69.7547 16.295L69.0542 11.6885Z" fill="#FFCC00"/>
<path d="M66.5969 19.2261L69.9816 16.7783L68.7505 15.0915L66.5969 19.2261Z" fill="#FFCC00"/>
<path d="M66.5957 19.2246L67.8873 15.263L69.8792 15.908L66.5957 19.2246Z" fill="#FFCC00"/>
<path d="M65.0754 14.5664L68.4622 17.0165L69.6913 15.332L65.0754 14.5664Z" fill="#FFCC00"/>
<path d="M65.0754 14.5674L69.2597 14.5693L69.2606 16.6507L65.0754 14.5674Z" fill="#FFCC00"/>
<path d="M75.7815 28.3716L77.0766 24.4076L79.065 25.0501L75.7815 28.3716Z" fill="#FFCC00"/>
<path d="M75.78 28.3701L79.1672 25.9196L77.9385 24.2356L75.78 28.3701Z" fill="#FFCC00"/>
<path d="M80.7002 28.3706L77.3155 25.9228L78.5466 24.236L80.7002 28.3706Z" fill="#FFCC00"/>
<path d="M80.7014 28.3691L79.4098 24.4076L77.4179 25.0525L80.7014 28.3691Z" fill="#FFCC00"/>
<path d="M82.2217 23.7104L78.8349 26.1605L77.6058 24.476L82.2217 23.7104Z" fill="#FFCC00"/>
<path d="M82.2217 23.7114L78.0375 23.7133L78.0365 25.7948L82.2217 23.7114Z" fill="#FFCC00"/>
<path d="M74.261 23.7124L77.6458 26.1603L78.8769 24.4737L74.261 23.7124Z" fill="#FFCC00"/>
<path d="M74.262 23.7134L78.446 23.711L78.4448 25.792L74.262 23.7134Z" fill="#FFCC00"/>
<path d="M78.2432 20.832L76.948 24.7961L78.9364 25.4386L78.2432 20.832Z" fill="#FFCC00"/>
<path d="M78.2432 20.832L79.5346 24.7935L77.5426 25.4386L78.2432 20.832Z" fill="#FFCC00"/>
<path d="M74.271 48.7192L78.4531 48.7131L78.45 50.7902L74.271 48.7192Z" fill="#FFCC00"/>
<path d="M74.2678 48.7163L77.6509 51.1623L78.8837 49.4737L74.2678 48.7163Z" fill="#FFCC00"/>
<path d="M75.7883 53.3755L77.0863 49.4095L79.0718 50.0499L75.7883 53.3755Z" fill="#FFCC00"/>
<path d="M75.7849 53.3721L79.1741 50.9193L77.9475 49.2375L75.7849 53.3721Z" fill="#FFCC00"/>
<path d="M80.7063 53.3721L77.3225 50.9252L78.5545 49.2375L80.7063 53.3721Z" fill="#FFCC00"/>
<path d="M80.7083 53.3701L79.4179 49.4094L77.4248 50.0552L80.7083 53.3701Z" fill="#FFCC00"/>
<path d="M78.2527 45.834L76.9554 49.7995L78.9416 50.4405L78.2527 45.834Z" fill="#FFCC00"/>
<path d="M78.2527 45.834L79.542 49.7939L77.5478 50.4405L78.2527 45.834Z" fill="#FFCC00"/>
<path d="M82.2288 48.7134L78.0448 48.7158L78.0436 50.7967L82.2288 48.7134Z" fill="#FFCC00"/>
<path d="M82.2288 48.7119L78.8418 51.1622L77.6129 49.478L82.2288 48.7119Z" fill="#FFCC00"/>
<path d="M65.0764 57.8701L69.2585 57.8639L69.2554 59.9411L65.0764 57.8701Z" fill="#FFCC00"/>
<path d="M65.0735 57.8672L68.4565 60.3132L69.6894 58.6246L65.0735 57.8672Z" fill="#FFCC00"/>
<path d="M66.5938 62.5264L67.8917 58.5603L69.8772 59.2008L66.5938 62.5264Z" fill="#FFCC00"/>
<path d="M66.5903 62.5229L69.9795 60.0702L68.7529 58.3884L66.5903 62.5229Z" fill="#FFCC00"/>
<path d="M71.5117 62.5229L68.1279 60.0761L69.3599 58.3884L71.5117 62.5229Z" fill="#FFCC00"/>
<path d="M71.5137 62.521L70.2233 58.5603L68.2302 59.2061L71.5137 62.521Z" fill="#FFCC00"/>
<path d="M69.0581 54.9854L67.7608 58.9509L69.747 59.5919L69.0581 54.9854Z" fill="#FFCC00"/>
<path d="M69.0581 54.9854L70.3474 58.9453L68.3533 59.5919L69.0581 54.9854Z" fill="#FFCC00"/>
<path d="M73.0344 57.8643L68.8505 57.8667L68.8492 59.9476L73.0344 57.8643Z" fill="#FFCC00"/>
<path d="M73.0344 57.8628L69.6474 60.3131L68.4185 58.6289L73.0344 57.8628Z" fill="#FFCC00"/>
</g>
<defs>
<clipPath id="clip0_35_7680">
<rect width="113" height="75" rx="10" fill="white"/>
</clipPath>
</defs>
</svg>
