<svg width="113" height="75" viewBox="0 0 113 75" fill="none" xmlns="http://www.w3.org/2000/svg">
<g clip-path="url(#clip0_35_8207)">
<path d="M0 0H113V75H0V0Z" fill="#E30A17"/>
<path d="M40.0208 56.25C50.4222 56.25 58.8542 47.8553 58.8542 37.5C58.8542 27.1447 50.4222 18.75 40.0208 18.75C29.6195 18.75 21.1875 27.1447 21.1875 37.5C21.1875 47.8553 29.6195 56.25 40.0208 56.25Z" fill="white"/>
<path d="M44.7293 52.5C53.0504 52.5 59.7959 45.7843 59.7959 37.5C59.7959 29.2157 53.0504 22.5 44.7293 22.5C36.4082 22.5 29.6626 29.2157 29.6626 37.5C29.6626 45.7843 36.4082 52.5 44.7293 52.5Z" fill="#E30A17"/>
<path d="M54.9307 37.5002L71.9655 43.0107L61.4373 28.584V46.4164L71.9655 31.9896L54.9307 37.5002Z" fill="white"/>
</g>
<defs>
<clipPath id="clip0_35_8207">
<rect width="113" height="75" rx="10" fill="white"/>
</clipPath>
</defs>
</svg>
