<svg width="113" height="75" viewBox="0 0 113 75" fill="none" xmlns="http://www.w3.org/2000/svg">
<g clip-path="url(#clip0_35_8132)">
<path d="M0 0H113V75H0V0Z" fill="white"/>
<path d="M41.8519 8.3335H113V16.6668H41.8519V8.3335ZM41.8519 25.0002H113V33.3335H41.8519V25.0002ZM0 41.6668H113V50.0002H0V41.6668ZM0 58.3335H113V66.6668H0V58.3335Z" fill="#0038A8"/>
<path d="M19.9784 24.9077L21.364 26.9676C15.6709 31.0688 19.1468 33.4944 15.1123 34.8074C17.6215 32.3696 14.7806 31.9934 16.8948 26.9122" fill="#FCD116"/>
<path d="M19.9784 24.9077L21.364 26.9676C15.6709 31.0688 19.1468 33.4944 15.1123 34.8074C17.6215 32.3696 14.7806 31.9934 16.8948 26.9122" stroke="#7B3F00" stroke-width="2.30929" stroke-miterlimit="20" stroke-linecap="square"/>
<path d="M17.3626 23.047L16.879 25.4789C9.94079 24.3716 10.6757 28.5331 6.89062 26.6218C10.3964 26.6641 8.73365 24.3675 13.8375 22.2627" fill="#FCD116"/>
<path d="M17.3626 23.047L16.879 25.4789C9.94079 24.3716 10.6757 28.5331 6.89062 26.6218C10.3964 26.664 8.73365 24.3675 13.8375 22.2627" stroke="#7B3F00" stroke-width="2.30929" stroke-miterlimit="20" stroke-linecap="square"/>
<path d="M17.3625 23.0473L16.2692 22.8511L16.2805 22.8961C13.3641 23.6079 11.7805 24.8115 10.5404 25.7262C9.91985 26.1838 9.3843 26.5726 8.804 26.7836C8.41937 26.9254 8.00653 26.9747 7.59912 26.9276C10.61 27.9926 10.4107 24.4475 16.8793 25.4797L17.3625 23.0473Z" fill="#7B3F00" stroke="#7B3F00" stroke-width="1.05071" stroke-miterlimit="20" stroke-linecap="square"/>
<path d="M16.2477 22.7627C10.3661 24.1962 9.80973 27.65 6.89062 26.6214" stroke="#7B3F00" stroke-width="2.30929" stroke-miterlimit="20"/>
<path d="M20.9258 20.8334L18.9725 18.8892L10.1831 31.5281L22.8791 22.778L20.9258 20.8334L10.1831 31.5281L20.9258 20.8334Z" fill="#FCD116"/>
<path d="M20.9258 20.8334L18.9725 18.8892L10.1831 31.5281M20.9258 20.8334L22.8791 22.778L10.1831 31.5281M20.9258 20.8334L10.1831 31.5281" stroke="#7B3F00" stroke-width="2.30929" stroke-miterlimit="20"/>
<path d="M16.8338 19.8904L14.7653 21.2695C10.6454 15.602 8.20894 19.0621 6.89062 15.0454C9.33926 17.5435 9.74013 14.7201 14.8444 16.8249" fill="#FCD116"/>
<path d="M16.8338 19.8904L14.7653 21.2695C10.6454 15.602 8.20894 19.0621 6.89062 15.0454C9.33926 17.5435 9.74013 14.7201 14.8444 16.8249" stroke="#7B3F00" stroke-width="2.30929" stroke-miterlimit="20" stroke-linecap="square"/>
<path d="M16.8337 19.8908L16.2001 18.9824L16.1761 19.022C13.6082 17.4719 11.6336 17.2087 10.1065 16.9819C9.34316 16.8685 8.68874 16.7669 8.12833 16.5072C7.7556 16.3369 7.42856 16.0813 7.17383 15.7612C8.54683 18.6337 10.9236 15.9862 14.7647 21.2703L16.8337 19.8908Z" fill="#7B3F00" stroke="#7B3F00" stroke-width="1.05071" stroke-miterlimit="20" stroke-linecap="square"/>
<path d="M16.2477 18.9041C11.0707 15.777 8.22431 17.8279 6.89062 15.0454" stroke="#7B3F00" stroke-width="2.30929" stroke-miterlimit="20"/>
<path d="M20.926 20.8336V18.0835L5.73389 20.8336L20.926 23.5836V20.8336H5.73389H20.926Z" fill="#FCD116"/>
<path d="M20.926 20.8336V18.0835L5.73389 20.8336M20.926 20.8336V23.5836L5.73389 20.8336M20.926 20.8336H5.73389" stroke="#7B3F00" stroke-width="2.30929" stroke-miterlimit="20"/>
<path d="M20.926 20.8335H5.73389L20.926 23.5836" fill="#7B3F00"/>
<path d="M18.7024 17.2855L16.2601 16.8045C17.3719 9.89653 13.1919 10.6281 15.1122 6.85986C15.0692 10.3501 17.4948 8.97415 19.609 14.0554" fill="#FCD116"/>
<path d="M18.7024 17.2855L16.2601 16.8045C17.3719 9.89653 13.1919 10.6281 15.1122 6.85986C15.0692 10.3501 17.4948 8.97415 19.609 14.0554" stroke="#7B3F00" stroke-width="2.30929" stroke-miterlimit="20" stroke-linecap="square"/>
<path d="M18.702 17.2861L18.899 16.1972L18.8538 16.2089C18.1393 13.305 16.9299 11.7283 16.0111 10.4937C15.5519 9.87593 15.1614 9.3432 14.9495 8.76502C14.8071 8.38222 14.7576 7.97138 14.8049 7.56592C13.7351 10.563 17.296 10.3646 16.2592 16.8051L18.702 17.2861Z" fill="#7B3F00" stroke="#7B3F00" stroke-width="1.05071" stroke-miterlimit="20" stroke-linecap="square"/>
<path d="M18.9879 16.1755C17.5484 10.3199 14.0788 9.7665 15.112 6.85986" stroke="#7B3F00" stroke-width="2.30929" stroke-miterlimit="20"/>
<path d="M20.9258 20.8333L22.8791 18.8891L10.1831 10.1386L18.9725 22.778L20.9258 20.8333L10.1831 10.1386L20.9258 20.8333Z" fill="#FCD116"/>
<path d="M20.9258 20.8333L22.8791 18.8891L10.1831 10.1386M20.9258 20.8333L18.9725 22.778L10.1831 10.1386M20.9258 20.8333L10.1831 10.1386" stroke="#7B3F00" stroke-width="2.30929" stroke-miterlimit="20"/>
<path d="M20.9258 20.8333L10.1831 10.1382L18.9725 22.778" fill="#7B3F00"/>
<path d="M21.8739 16.7595L20.4883 14.6997C26.1814 10.598 22.7055 8.1728 26.74 6.85986C24.2308 9.29766 27.0573 9.69991 24.9431 14.7811" fill="#FCD116"/>
<path d="M21.8739 16.7595L20.4883 14.6997C26.1814 10.598 22.7055 8.1728 26.74 6.85986C24.2308 9.29766 27.0573 9.69991 24.9431 14.7811" stroke="#7B3F00" stroke-width="2.30929" stroke-miterlimit="20" stroke-linecap="square"/>
<path d="M21.8734 16.7592L22.7854 16.1284L22.7457 16.1046C24.3026 13.5484 24.5675 11.5826 24.7948 10.0623C24.9087 9.30186 25.0108 8.65034 25.272 8.09241C25.4431 7.72154 25.6997 7.39611 26.0209 7.14258C23.1357 8.50906 25.7949 10.8753 20.4873 14.6994L21.8734 16.7592Z" fill="#7B3F00" stroke="#7B3F00" stroke-width="1.05071" stroke-miterlimit="20" stroke-linecap="square"/>
<path d="M22.8643 16.1755C26.0048 11.0214 23.9449 8.18765 26.7397 6.85986" stroke="#7B3F00" stroke-width="2.30929" stroke-miterlimit="20"/>
<path d="M20.9259 20.8334H23.6881L20.9259 5.7085L18.1636 20.8334H20.9259V5.7085V20.8334Z" fill="#FCD116"/>
<path d="M20.9259 20.8334H23.6881L20.9259 5.7085M20.9259 20.8334H18.1636L20.9259 5.7085M20.9259 20.8334V5.7085" stroke="#7B3F00" stroke-width="2.30929" stroke-miterlimit="20"/>
<path d="M20.9259 20.8334V5.7085L18.1636 20.8334" fill="#7B3F00"/>
<path d="M24.4897 18.6198L24.9733 16.1883C31.9116 17.2956 31.1767 13.1336 34.9622 15.0454C31.456 15.0031 33.0179 17.3113 27.9141 19.4162" fill="#FCD116"/>
<path d="M24.4897 18.6198L24.9733 16.1883C31.9116 17.2956 31.1767 13.1336 34.9622 15.0454C31.456 15.0031 33.0179 17.3113 27.9141 19.4162" stroke="#7B3F00" stroke-width="2.30929" stroke-miterlimit="20" stroke-linecap="square"/>
<path d="M24.4897 18.6194L25.583 18.8156L25.5717 18.7706C28.4881 18.0592 30.0717 16.8556 31.3118 15.9404C31.9324 15.4833 32.4679 15.0945 33.0482 14.8835C33.4328 14.7417 33.8457 14.6924 34.2531 14.7395C31.2422 13.6745 31.442 17.2196 24.9729 16.1874L24.4897 18.6194Z" fill="#7B3F00" stroke="#7B3F00" stroke-width="1.05071" stroke-miterlimit="20" stroke-linecap="square"/>
<path d="M25.6045 18.904C31.4861 17.4709 32.0424 14.0167 34.962 15.0452" stroke="#7B3F00" stroke-width="2.30929" stroke-miterlimit="20"/>
<path d="M20.9259 20.8333L22.8792 22.778L31.6682 10.1386L18.9722 18.8891L20.9259 20.8333L31.6682 10.1386L20.9259 20.8333Z" fill="#FCD116"/>
<path d="M20.9259 20.8333L22.8792 22.778L31.6682 10.1386M20.9259 20.8333L18.9722 18.8891L31.6682 10.1386M20.9259 20.8333L31.6682 10.1386" stroke="#7B3F00" stroke-width="2.30929" stroke-miterlimit="20"/>
<path d="M20.926 20.8333L31.6687 10.1382L18.9727 18.8891" fill="#7B3F00"/>
<path d="M25.0186 21.777L27.0871 20.3979C31.207 26.0654 33.6435 22.6054 34.9622 26.6216C32.5131 24.1235 32.0535 26.919 26.9493 24.8141" fill="#FCD116"/>
<path d="M25.0186 21.777L27.0871 20.3979C31.207 26.0654 33.6435 22.6054 34.9622 26.6216C32.5131 24.1235 32.0535 26.919 26.9493 24.8141" stroke="#7B3F00" stroke-width="2.30929" stroke-miterlimit="20" stroke-linecap="square"/>
<path d="M25.0186 21.7769L25.6522 22.6849L25.6761 22.6449C28.2441 24.1949 30.2186 24.4586 31.7457 24.6849C32.5091 24.7983 33.1639 24.9005 33.7239 25.1601C34.0966 25.3305 34.4237 25.5861 34.6784 25.9061C33.3058 23.0336 30.9286 25.6807 27.0876 20.397L25.0186 21.7769Z" fill="#7B3F00" stroke="#7B3F00" stroke-width="1.05071" stroke-miterlimit="20" stroke-linecap="square"/>
<path d="M25.6045 22.7627C30.7815 25.8898 33.6279 23.839 34.962 26.6214" stroke="#7B3F00" stroke-width="2.30929" stroke-miterlimit="20"/>
<path d="M20.9258 20.8336V23.5836L36.1179 20.8336L20.9258 18.0835V20.8336H36.1179H20.9258Z" fill="#FCD116"/>
<path d="M20.9258 20.8336V23.5836L36.1179 20.8336M20.9258 20.8336V18.0835L36.1179 20.8336M20.9258 20.8336H36.1179" stroke="#7B3F00" stroke-width="2.30929" stroke-miterlimit="20"/>
<path d="M20.9258 20.8336H36.1179L20.9258 18.0835" fill="#7B3F00"/>
<path d="M23.1494 24.3818L25.5922 24.8628C24.4795 31.7708 28.66 31.0388 26.7401 34.8075C26.7826 31.3173 24.4741 32.9335 22.3604 27.8523" fill="#FCD116"/>
<path d="M23.1494 24.3818L25.5922 24.8628C24.4795 31.7708 28.66 31.0388 26.7401 34.8075C26.7826 31.3173 24.4741 32.9335 22.3604 27.8523" stroke="#7B3F00" stroke-width="2.30929" stroke-miterlimit="20" stroke-linecap="square"/>
<path d="M23.1502 24.3813L22.9531 25.4698L22.9983 25.4585C23.7133 28.362 24.9222 29.9386 25.841 31.1737C26.3002 31.7915 26.6907 32.3242 26.9027 32.9024C27.0451 33.2852 27.0949 33.696 27.0477 34.1015C28.1175 31.104 24.5562 31.3028 25.5929 24.8623L23.1502 24.3813Z" fill="#7B3F00" stroke="#7B3F00" stroke-width="1.05071" stroke-miterlimit="20" stroke-linecap="square"/>
<path d="M22.8643 25.4917C24.3032 31.3473 27.7724 31.9007 26.7392 34.8073" stroke="#7B3F00" stroke-width="2.30929" stroke-miterlimit="20"/>
<path d="M20.926 20.8334L18.9727 22.778L31.6687 31.5285L22.8793 18.8892L20.926 20.8334L31.6687 31.5285L20.926 20.8334Z" fill="#FCD116"/>
<path d="M20.926 20.8334L18.9727 22.778L31.6687 31.5285M20.926 20.8334L22.8793 18.8892L31.6687 31.5285M20.926 20.8334L31.6687 31.5285" stroke="#7B3F00" stroke-width="2.30929" stroke-miterlimit="20"/>
<path d="M20.9258 20.8334L31.6685 31.5285L22.8791 18.8892" fill="#7B3F00"/>
<path d="M19.9785 24.9077L19.0665 25.539L19.1063 25.5628C17.5493 28.119 17.285 30.0848 17.0572 31.6051C16.9433 32.3655 16.8411 33.0171 16.5799 33.5745C16.4089 33.9456 16.1523 34.2712 15.8311 34.5248C18.7163 33.1583 16.057 30.7916 21.3647 26.9676L19.9785 24.9077Z" fill="#7B3F00" stroke="#7B3F00" stroke-width="1.05071" stroke-miterlimit="20" stroke-linecap="square"/>
<path d="M18.9882 25.4917C15.8472 30.6454 17.9071 33.4791 15.1123 34.8073" stroke="#7B3F00" stroke-width="2.30929" stroke-miterlimit="20"/>
<path d="M20.9263 20.8335H18.1641L20.9263 35.9588L23.6886 20.8335H20.9263V35.9588V20.8335Z" fill="#FCD116"/>
<path d="M20.9263 20.8335H18.1641L20.9263 35.9588M20.9263 20.8335H23.6886L20.9263 35.9588M20.9263 20.8335V35.9588" stroke="#7B3F00" stroke-width="2.30929" stroke-miterlimit="20"/>
<path d="M20.9258 20.8335V35.9588L23.6881 20.8335" fill="#7B3F00"/>
<path d="M20.9258 20.8335L10.1831 31.5287L22.8791 22.7782" fill="#7B3F00"/>
<path d="M20.9258 25.8747C23.7226 25.8747 25.9899 23.6175 25.9899 20.8331C25.9899 18.0487 23.7226 15.7915 20.9258 15.7915C18.1291 15.7915 15.8618 18.0487 15.8618 20.8331C15.8618 23.6175 18.1291 25.8747 20.9258 25.8747Z" fill="#FCD116" stroke="#7B3F00" stroke-width="2.30929" stroke-miterlimit="20"/>
<path d="M24.655 18.8169C24.3327 19.1836 24.1488 18.5425 22.9977 18.5425C21.8466 18.5425 21.6627 19.2295 21.4783 19.0918C21.2943 18.9546 22.4454 18.1294 22.8138 18.084C23.1816 18.0381 24.2405 18.4048 24.655 18.8174M23.3199 19.2295C23.6422 19.5044 23.366 20.1006 23.0438 20.1006C22.7216 20.1006 22.1232 19.5503 22.3993 19.1836" fill="#7B3F00"/>
<path d="M21.8004 19.6421C21.8465 19.0918 22.3071 19.0005 23.0433 19.0005C23.7799 19.0005 24.1026 19.5503 24.3788 19.688C24.0565 19.688 23.7804 19.2295 23.0437 19.2295C22.3071 19.2295 22.3071 19.2295 21.8009 19.688M21.9387 19.7793C22.1231 19.5049 22.3532 20.0547 22.8593 20.0547C23.3655 20.0547 23.6421 19.917 23.9643 19.688C24.2866 19.4585 23.5038 20.2378 22.9976 20.2378C22.4914 20.2378 21.8004 19.9629 21.9387 19.7793ZM18.348 19.1836C18.1175 19.2754 17.7492 19.7339 18.348 20.0547C17.887 19.7339 18.2558 19.2754 18.348 19.1836Z" fill="#7B3F00"/>
<path d="M23.5043 19.1836C23.596 19.2754 23.9644 19.7339 23.5043 20.0547C24.1027 19.7339 23.7343 19.2754 23.5043 19.1836ZM20.1893 21.1544C19.7748 21.2461 19.9131 21.8419 19.5448 21.8878C19.1765 21.9336 18.9925 22.3463 19.0386 22.3004C19.2687 22.1172 19.7753 21.9795 20.1432 21.9795C20.5115 21.9795 20.6037 22.209 20.9259 22.209C21.2482 22.209 21.3404 21.9795 21.7087 21.9795C22.077 21.9795 22.5832 22.1172 22.8137 22.3004C22.8594 22.3463 22.6754 21.9336 22.3075 21.8878C21.9387 21.8419 22.077 21.2461 21.6626 21.1544C21.6626 21.3379 21.8005 21.292 21.8466 21.5669C21.8466 21.7964 21.4326 21.7964 21.3404 21.5669C21.4326 21.9337 21.156 21.9337 20.9259 21.9337C20.6959 21.9337 20.4198 21.9337 20.5115 21.5669C20.4198 21.7964 20.0053 21.7964 20.0053 21.5669C20.0514 21.292 20.1893 21.3375 20.1893 21.1544ZM18.762 22.713C18.3937 22.9879 18.302 23.1256 18.2559 23.4464C18.3661 23.2538 18.4204 23.1746 18.5044 23.0617L18.4403 23.0338C18.4669 23.0369 18.4909 23.041 18.5171 23.0446C18.5722 22.9699 18.6219 22.9051 18.762 22.713Z" fill="#7B3F00"/>
<path d="M18.5166 23.0445L18.5107 23.0526C18.5686 23.0661 18.6296 23.0719 18.6933 23.0724C18.6347 23.062 18.5755 23.0527 18.5166 23.0445ZM18.6933 23.0724C18.9808 23.1228 19.2058 23.1884 19.4124 23.255C19.67 23.2361 20.0257 23.1709 20.9264 23.1709C21.8271 23.1709 22.1819 23.2361 22.4395 23.255C22.646 23.1884 22.8715 23.1228 23.1581 23.0724C22.651 23.0742 21.9749 22.7124 21.6621 22.7124C21.2943 22.7124 21.2021 22.8042 20.9259 22.8042C20.6498 22.8042 20.5576 22.7128 20.1893 22.7128C19.877 22.7128 19.2009 23.0742 18.6933 23.0724ZM23.1581 23.0724C23.2223 23.0724 23.2837 23.0656 23.3411 23.0526L23.3352 23.0445C23.2738 23.0535 23.2141 23.0625 23.1581 23.0724Z" fill="#7B3F00"/>
<path d="M23.3352 23.0445C23.361 23.0409 23.385 23.0369 23.4121 23.0337C23.389 23.0432 23.37 23.0517 23.3475 23.0616C23.4315 23.1745 23.4857 23.2537 23.596 23.4463C23.5499 23.1255 23.4582 22.9878 23.0898 22.7129C23.2299 22.905 23.2797 22.9694 23.3352 23.0445Z" fill="#7B3F00"/>
<path d="M23.3477 23.0616C23.347 23.0605 23.3461 23.0594 23.345 23.0585C22.8646 23.243 22.6956 23.2745 22.4393 23.2551C22.0027 23.3959 21.643 23.5381 20.9258 23.5381C20.2085 23.5381 19.8488 23.3959 19.4122 23.2551C19.156 23.274 18.9869 23.243 18.5065 23.0585C18.5059 23.0596 18.5051 23.0607 18.5043 23.0616C19.9505 23.6812 19.7923 23.9044 20.9258 23.9044C22.0592 23.9044 21.9011 23.6812 23.3473 23.0616H23.3477ZM18.5065 23.0585C18.508 23.0565 18.5095 23.0546 18.511 23.0526C18.487 23.0478 18.4633 23.0415 18.4401 23.0337C18.4663 23.0441 18.4821 23.049 18.5065 23.0585ZM23.345 23.0585C23.3694 23.049 23.3857 23.0441 23.4119 23.0337C23.3893 23.0418 23.3649 23.0472 23.341 23.0526C23.3424 23.0546 23.3439 23.0566 23.3455 23.0585H23.345ZM17.1968 18.8169C17.519 19.1836 17.703 18.5424 18.8541 18.5424C20.0052 18.5424 20.1891 19.2295 20.3735 19.0918C20.5579 18.9541 19.4063 18.1293 19.0384 18.0839C18.6706 18.0385 17.6112 18.4047 17.1968 18.8173M18.5318 19.2295C18.2096 19.5044 18.4857 20.1006 18.808 20.1006C19.1302 20.1006 19.729 19.5503 19.4524 19.1836" fill="#7B3F00"/>
<path d="M20.0515 19.6421C20.0054 19.0918 19.5453 19.0005 18.8086 19.0005C18.072 19.0005 17.7493 19.5503 17.4731 19.688C17.7954 19.688 18.0715 19.2295 18.8082 19.2295C19.5449 19.2295 19.5449 19.2295 20.051 19.688M19.9132 19.7793C19.7292 19.5049 19.4988 20.0547 18.9926 20.0547C18.4864 20.0547 18.2098 19.917 17.8876 19.688C17.5653 19.459 18.3481 20.2378 18.8547 20.2378C19.3614 20.2378 20.0515 19.9629 19.9132 19.7793ZM20.926 24.317C20.6955 24.317 20.0976 24.4547 20.926 24.4547C21.7544 24.4547 21.1565 24.317 20.926 24.317Z" fill="#7B3F00"/>
</g>
<defs>
<clipPath id="clip0_35_8132">
<rect width="113" height="75" rx="10" fill="white"/>
</clipPath>
</defs>
</svg>
