<svg width="113" height="75" viewBox="0 0 113 75" fill="none" xmlns="http://www.w3.org/2000/svg">
<g clip-path="url(#clip0_35_7901)">
<path d="M0 0H113V75H0V0Z" fill="#1EB53A"/>
<path d="M0 0H113V37.963H0V0Z" fill="#0099B5"/>
<path d="M0 24.0742H113V50.9261H0V24.0742Z" fill="#CE1126"/>
<path d="M0 25.9258H113V49.0739H0V25.9258Z" fill="white"/>
<path d="M21.0078 21C25.98 21 30.0108 16.9706 30.0108 12C30.0108 7.02944 25.98 3 21.0078 3C16.0356 3 12.0049 7.02944 12.0049 12C12.0049 16.9706 16.0356 21 21.0078 21Z" fill="white"/>
<path d="M24.0071 21C28.9793 21 33.0101 16.9706 33.0101 12C33.0101 7.02944 28.9793 3 24.0071 3C19.0349 3 15.0042 7.02944 15.0042 12C15.0042 16.9706 19.0349 21 24.0071 21Z" fill="#0099B5"/>
<path d="M40.813 17.3999L40.2566 19.1118L41.1128 19.3899" fill="white"/>
<path d="M40.813 17.3999L41.3694 19.1118L40.5132 19.3899" fill="white"/>
<path d="M42.5256 18.6436L40.7251 18.6434L40.7252 19.5433" fill="white"/>
<path d="M42.5259 18.6436L41.0692 19.7015L40.54 18.9733" fill="white"/>
<path d="M39.1008 18.644L40.5575 19.702L41.0867 18.9738" fill="white"/>
<path d="M39.1008 18.644L40.9013 18.6439L40.9013 19.5438" fill="white"/>
<path d="M41.8713 20.6558L41.3149 18.9438L40.4587 19.2219" fill="white"/>
<path d="M41.8713 20.6558L40.4146 19.5977L40.9437 18.8696" fill="white"/>
<path d="M39.7546 20.6562L41.2113 19.5983L40.6821 18.8701" fill="white"/>
<path d="M39.7544 20.6562L40.3108 18.9444L41.167 19.2225" fill="white"/>
<path d="M40.813 10.2002L40.2566 11.9121L41.1128 12.1902" fill="white"/>
<path d="M40.813 10.2002L41.3694 11.9121L40.5132 12.1902" fill="white"/>
<path d="M42.5256 11.4438L40.7251 11.4437L40.7252 12.3436" fill="white"/>
<path d="M42.5259 11.4438L41.0692 12.5018L40.54 11.7736" fill="white"/>
<path d="M39.1008 11.4443L40.5575 12.5023L41.0867 11.7741" fill="white"/>
<path d="M39.1008 11.4443L40.9013 11.4442L40.9013 12.3441" fill="white"/>
<path d="M41.8713 13.4561L41.3149 11.7441L40.4587 12.0222" fill="white"/>
<path d="M41.8713 13.4561L40.4146 12.398L40.9437 11.6699" fill="white"/>
<path d="M39.7546 13.4565L41.2113 12.3986L40.6821 11.6704" fill="white"/>
<path d="M39.7544 13.4565L40.3108 11.7447L41.167 12.0228" fill="white"/>
<path d="M40.8127 3L40.2563 4.7119L41.1126 4.99002" fill="white"/>
<path d="M40.8127 3L41.3692 4.7119L40.5129 4.99002" fill="white"/>
<path d="M42.5254 4.24365L40.7249 4.24351L40.7249 5.14337" fill="white"/>
<path d="M42.5256 4.24365L41.069 5.3016L40.5397 4.57341" fill="white"/>
<path d="M39.1006 4.24414L40.5572 5.30208L41.0865 4.5739" fill="white"/>
<path d="M39.1006 4.24414L40.9011 4.244L40.901 5.14386" fill="white"/>
<path d="M41.8713 6.25586L41.3149 4.54392L40.4587 4.82199" fill="white"/>
<path d="M41.8713 6.25586L40.4146 5.1978L40.9437 4.46973" fill="white"/>
<path d="M39.7546 6.25635L41.2113 5.19837L40.6821 4.47022" fill="white"/>
<path d="M39.7544 6.25635L40.3108 4.54448L41.167 4.82263" fill="white"/>
<path d="M48.0154 17.3999L47.459 19.1118L48.3152 19.3899" fill="white"/>
<path d="M48.0154 17.3999L48.5718 19.1118L47.7156 19.3899" fill="white"/>
<path d="M49.728 18.6436L47.9275 18.6434L47.9276 19.5433" fill="white"/>
<path d="M49.7283 18.6436L48.2716 19.7015L47.7424 18.9733" fill="white"/>
<path d="M46.3032 18.644L47.7599 19.702L48.2891 18.9738" fill="white"/>
<path d="M46.3032 18.644L48.1037 18.6439L48.1037 19.5438" fill="white"/>
<path d="M49.0737 20.6558L48.5173 18.9438L47.6611 19.2219" fill="white"/>
<path d="M49.0737 20.6558L47.617 19.5977L48.1461 18.8696" fill="white"/>
<path d="M46.957 20.6562L48.4137 19.5983L47.8845 18.8701" fill="white"/>
<path d="M46.9568 20.6562L47.5132 18.9444L48.3694 19.2225" fill="white"/>
<path d="M48.0154 10.2002L47.459 11.9121L48.3152 12.1902" fill="white"/>
<path d="M48.0154 10.2002L48.5718 11.9121L47.7156 12.1902" fill="white"/>
<path d="M49.728 11.4438L47.9275 11.4437L47.9276 12.3436" fill="white"/>
<path d="M49.7283 11.4438L48.2716 12.5018L47.7424 11.7736" fill="white"/>
<path d="M46.3032 11.4443L47.7599 12.5023L48.2891 11.7741" fill="white"/>
<path d="M46.3032 11.4443L48.1037 11.4442L48.1037 12.3441" fill="white"/>
<path d="M49.0737 13.4561L48.5173 11.7441L47.6611 12.0222" fill="white"/>
<path d="M49.0737 13.4561L47.617 12.398L48.1461 11.6699" fill="white"/>
<path d="M46.957 13.4565L48.4137 12.3986L47.8845 11.6704" fill="white"/>
<path d="M46.9568 13.4565L47.5132 11.7447L48.3694 12.0228" fill="white"/>
<path d="M48.0151 3L47.4587 4.7119L48.315 4.99002" fill="white"/>
<path d="M48.0151 3L48.5715 4.7119L47.7153 4.99002" fill="white"/>
<path d="M49.7278 4.24365L47.9273 4.24351L47.9273 5.14337" fill="white"/>
<path d="M49.728 4.24365L48.2714 5.3016L47.7421 4.57341" fill="white"/>
<path d="M46.303 4.24414L47.7596 5.30208L48.2889 4.5739" fill="white"/>
<path d="M46.303 4.24414L48.1035 4.244L48.1034 5.14386" fill="white"/>
<path d="M49.0737 6.25586L48.5173 4.54392L47.6611 4.82199" fill="white"/>
<path d="M49.0737 6.25586L47.617 5.1978L48.1461 4.46973" fill="white"/>
<path d="M46.957 6.25635L48.4137 5.19837L47.8845 4.47022" fill="white"/>
<path d="M46.9568 6.25635L47.5132 4.54448L48.3694 4.82263" fill="white"/>
<path d="M55.2175 17.3999L54.6611 19.1118L55.5173 19.3899" fill="white"/>
<path d="M55.2175 17.3999L55.7739 19.1118L54.9177 19.3899" fill="white"/>
<path d="M56.9302 18.6436L55.1297 18.6434L55.1297 19.5433" fill="white"/>
<path d="M56.9304 18.6436L55.4738 19.7015L54.9445 18.9733" fill="white"/>
<path d="M53.5054 18.644L54.962 19.702L55.4913 18.9738" fill="white"/>
<path d="M53.5054 18.644L55.3059 18.6439L55.3058 19.5438" fill="white"/>
<path d="M56.2759 20.6558L55.7194 18.9438L54.8632 19.2219" fill="white"/>
<path d="M56.2759 20.6558L54.8191 19.5977L55.3483 18.8696" fill="white"/>
<path d="M54.1592 20.6562L55.6159 19.5983L55.0866 18.8701" fill="white"/>
<path d="M54.1589 20.6562L54.7153 18.9444L55.5716 19.2225" fill="white"/>
<path d="M55.2175 10.2002L54.6611 11.9121L55.5173 12.1902" fill="white"/>
<path d="M55.2175 10.2002L55.7739 11.9121L54.9177 12.1902" fill="white"/>
<path d="M56.9302 11.4438L55.1297 11.4437L55.1297 12.3436" fill="white"/>
<path d="M56.9304 11.4438L55.4738 12.5018L54.9445 11.7736" fill="white"/>
<path d="M53.5054 11.4443L54.962 12.5023L55.4913 11.7741" fill="white"/>
<path d="M53.5054 11.4443L55.3059 11.4442L55.3058 12.3441" fill="white"/>
<path d="M56.2759 13.4561L55.7194 11.7441L54.8632 12.0222" fill="white"/>
<path d="M56.2759 13.4561L54.8191 12.398L55.3483 11.6699" fill="white"/>
<path d="M54.1592 13.4565L55.6159 12.3986L55.0866 11.6704" fill="white"/>
<path d="M54.1589 13.4565L54.7153 11.7447L55.5716 12.0228" fill="white"/>
<path d="M55.2173 3L54.6609 4.7119L55.5171 4.99002" fill="white"/>
<path d="M55.2173 3L55.7737 4.7119L54.9175 4.99002" fill="white"/>
<path d="M56.9299 4.24365L55.1294 4.24351L55.1295 5.14337" fill="white"/>
<path d="M56.9302 4.24365L55.4735 5.3016L54.9443 4.57341" fill="white"/>
<path d="M53.5051 4.24414L54.9618 5.30208L55.491 4.5739" fill="white"/>
<path d="M53.5051 4.24414L55.3056 4.244L55.3056 5.14386" fill="white"/>
<path d="M56.2759 6.25586L55.7194 4.54392L54.8632 4.82199" fill="white"/>
<path d="M56.2759 6.25586L54.8191 5.1978L55.3483 4.46973" fill="white"/>
<path d="M54.1592 6.25635L55.6159 5.19837L55.0866 4.47022" fill="white"/>
<path d="M54.1589 6.25635L54.7153 4.54448L55.5716 4.82263" fill="white"/>
<path d="M26.4082 17.3999L25.8518 19.1118L26.708 19.3899" fill="white"/>
<path d="M26.4082 17.3999L26.9646 19.1118L26.1084 19.3899" fill="white"/>
<path d="M28.1208 18.6436L26.3203 18.6434L26.3204 19.5433" fill="white"/>
<path d="M28.1211 18.6436L26.6644 19.7015L26.1352 18.9733" fill="white"/>
<path d="M24.696 18.644L26.1527 19.702L26.6819 18.9738" fill="white"/>
<path d="M24.696 18.644L26.4966 18.6439L26.4965 19.5438" fill="white"/>
<path d="M27.4666 20.6558L26.9101 18.9438L26.0539 19.2219" fill="white"/>
<path d="M27.4666 20.6558L26.0098 19.5977L26.5389 18.8696" fill="white"/>
<path d="M25.3499 20.6562L26.8065 19.5983L26.2773 18.8701" fill="white"/>
<path d="M25.3496 20.6562L25.906 18.9444L26.7623 19.2225" fill="white"/>
<path d="M33.6106 17.3999L33.0542 19.1118L33.9104 19.3899" fill="white"/>
<path d="M33.6106 17.3999L34.167 19.1118L33.3108 19.3899" fill="white"/>
<path d="M35.3232 18.6436L33.5227 18.6434L33.5228 19.5433" fill="white"/>
<path d="M35.3235 18.6436L33.8668 19.7015L33.3376 18.9733" fill="white"/>
<path d="M31.8984 18.644L33.3551 19.702L33.8843 18.9738" fill="white"/>
<path d="M31.8984 18.644L33.699 18.6439L33.6989 19.5438" fill="white"/>
<path d="M34.6689 20.6558L34.1125 18.9438L33.2563 19.2219" fill="white"/>
<path d="M34.6689 20.6558L33.2122 19.5977L33.7413 18.8696" fill="white"/>
<path d="M32.5522 20.6562L34.0089 19.5983L33.4797 18.8701" fill="white"/>
<path d="M32.552 20.6562L33.1084 18.9444L33.9646 19.2225" fill="white"/>
<path d="M33.6106 10.2002L33.0542 11.9121L33.9104 12.1902" fill="white"/>
<path d="M33.6106 10.2002L34.167 11.9121L33.3108 12.1902" fill="white"/>
<path d="M35.3232 11.4438L33.5227 11.4437L33.5228 12.3436" fill="white"/>
<path d="M35.3235 11.4438L33.8668 12.5018L33.3376 11.7736" fill="white"/>
<path d="M31.8984 11.4443L33.3551 12.5023L33.8843 11.7741" fill="white"/>
<path d="M31.8984 11.4443L33.699 11.4442L33.6989 12.3441" fill="white"/>
<path d="M34.6689 13.4561L34.1125 11.7441L33.2563 12.0222" fill="white"/>
<path d="M34.6689 13.4561L33.2122 12.398L33.7413 11.6699" fill="white"/>
<path d="M32.5522 13.4565L34.0089 12.3986L33.4797 11.6704" fill="white"/>
<path d="M32.552 13.4565L33.1084 11.7447L33.9646 12.0228" fill="white"/>
</g>
<defs>
<clipPath id="clip0_35_7901">
<rect width="113" height="75" rx="10" fill="white"/>
</clipPath>
</defs>
</svg>
