<svg width="214" height="49" viewBox="0 0 214 49" fill="none" xmlns="http://www.w3.org/2000/svg">
<g opacity="0.3">
<path fill-rule="evenodd" clip-rule="evenodd" d="M18.7147 34.22C17.1137 34.22 15.5783 33.584 14.4462 32.452C13.3142 31.3199 12.6782 29.7845 12.6782 28.1835V0.41571H0.605225V28.1835C0.605225 38.1848 8.71343 46.293 18.7147 46.293H31.9949V34.22H18.7147ZM54.9336 12.4887C53.5067 12.4887 52.0937 12.7697 50.7755 13.3158C49.4572 13.8618 48.2594 14.6622 47.2504 15.6712C46.2414 16.6801 45.4411 17.878 44.895 19.1962C44.349 20.5145 44.0679 21.9274 44.0679 23.3543C44.0679 24.7812 44.349 26.1942 44.895 27.5125C45.4411 28.8307 46.2414 30.0286 47.2504 31.0375C48.2594 32.0465 49.4572 32.8469 50.7755 33.3929C52.0937 33.939 53.5067 34.22 54.9336 34.22C57.8153 34.22 60.5791 33.0752 62.6168 31.0375C64.6545 28.9998 65.7992 26.2361 65.7992 23.3543C65.7992 20.4726 64.6545 17.7089 62.6168 15.6712C60.5791 13.6334 57.8153 12.4887 54.9336 12.4887ZM31.9949 23.3543C31.9949 10.6862 42.2654 0.41571 54.9336 0.41571C67.6017 0.41571 77.8722 10.6862 77.8722 23.3543C77.8722 36.0225 67.6017 46.293 54.9336 46.293C42.2654 46.293 31.9949 36.0225 31.9949 23.3543ZM185.322 12.4887C182.44 12.4887 179.676 13.6334 177.638 15.6712C175.601 17.7089 174.456 20.4726 174.456 23.3543C174.456 26.2361 175.601 28.9998 177.638 31.0375C179.676 33.0752 182.44 34.22 185.322 34.22C188.203 34.22 190.967 33.0752 193.005 31.0375C195.043 28.9998 196.187 26.2361 196.187 23.3543C196.187 20.4726 195.043 17.7089 193.005 15.6712C190.967 13.6334 188.203 12.4887 185.322 12.4887ZM162.383 23.3543C162.383 10.6862 172.653 0.41571 185.322 0.41571C197.99 0.41571 208.26 10.6862 208.26 23.3543C208.26 36.0225 197.99 46.293 185.322 46.293C172.653 46.293 162.383 36.0225 162.383 23.3543ZM103.225 0.41571C90.5573 0.41571 80.2868 10.6862 80.2868 23.3543C80.2868 36.0225 90.5573 46.293 103.225 46.293H137.03C139.407 46.293 141.7 45.9308 143.856 45.2595L150.31 48.7076L157.274 35.6639C159.043 32.3435 159.968 28.639 159.968 24.8767V23.3543C159.968 10.6862 149.698 0.41571 137.03 0.41571H103.225ZM147.895 23.3543C147.895 20.4726 146.751 17.7089 144.713 15.6712C142.675 13.6334 139.912 12.4887 137.03 12.4887H103.225C101.799 12.4887 100.386 12.7697 99.0673 13.3158C97.749 13.8618 96.5512 14.6622 95.5423 15.6712C94.5333 16.6801 93.7329 17.878 93.1869 19.1962C92.6408 20.5145 92.3598 21.9274 92.3598 23.3543C92.3598 24.7812 92.6408 26.1942 93.1869 27.5125C93.7329 28.8307 94.5333 30.0286 95.5423 31.0375C96.5512 32.0465 97.749 32.8469 99.0673 33.3929C100.386 33.939 101.799 34.22 103.225 34.22H137.03C139.897 34.2201 142.648 33.0869 144.683 31.0675C146.719 29.048 147.873 26.3059 147.895 23.4389V23.3543Z" fill="white"/>
<path d="M213.089 3.43389C213.089 4.23438 212.771 5.00208 212.205 5.56811C211.639 6.13414 210.872 6.45213 210.071 6.45213C209.271 6.45213 208.503 6.13414 207.937 5.56811C207.371 5.00208 207.053 4.23438 207.053 3.43389C207.053 2.6334 207.371 1.8657 207.937 1.29967C208.503 0.733642 209.271 0.415649 210.071 0.415649C210.872 0.415649 211.639 0.733642 212.205 1.29967C212.771 1.8657 213.089 2.6334 213.089 3.43389Z" fill="white"/>
</g>
</svg>
