<svg width="202" height="49" viewBox="0 0 202 49" fill="none" xmlns="http://www.w3.org/2000/svg">
<g opacity="0.3">
<path d="M58.8628 34.8236H73.2924V30.4773H63.9914V14.1064H58.8628V34.8236Z" fill="white"/>
<path d="M81.8414 31.926C79.7841 31.926 78.712 30.1296 78.712 27.4349C78.712 24.7402 79.7841 22.9148 81.8414 22.9148C83.8986 22.9148 84.9996 24.7402 84.9996 27.4349C84.9996 30.1296 83.8986 31.926 81.8414 31.926ZM81.8703 35.2872C86.6512 35.2872 89.7805 31.8971 89.7805 27.4349C89.7805 22.9727 86.6512 19.5826 81.8703 19.5826C77.1184 19.5826 73.9312 22.9727 73.9312 27.4349C73.9312 31.8971 77.1184 35.2872 81.8703 35.2872Z" fill="white"/>
<path d="M98.0557 39.9523C100.258 39.9523 102.199 39.4597 103.503 38.3007C104.691 37.2286 105.473 35.606 105.473 33.3749V19.9884H100.953V21.582H100.895C100.026 20.3361 98.6931 19.5538 96.7228 19.5538C93.043 19.5538 90.4932 22.6251 90.4932 26.9714C90.4932 31.5205 93.5935 34.0124 96.9256 34.0124C98.7221 34.0124 99.8521 33.288 100.721 32.3028H100.837V33.7806C100.837 35.577 99.997 36.6201 97.9977 36.6201C96.4331 36.6201 95.6507 35.9537 95.39 35.1714H90.8119C91.2755 38.2717 93.9702 39.9523 98.0557 39.9523ZM98.0267 30.5064C96.2592 30.5064 95.1002 29.0576 95.1002 26.8265C95.1002 24.5665 96.2592 23.1177 98.0267 23.1177C99.997 23.1177 101.04 24.7983 101.04 26.7976C101.04 28.8838 100.084 30.5064 98.0267 30.5064Z" fill="white"/>
<path d="M114.768 31.926C112.71 31.926 111.638 30.1296 111.638 27.4349C111.638 24.7402 112.71 22.9148 114.768 22.9148C116.825 22.9148 117.926 24.7402 117.926 27.4349C117.926 30.1296 116.825 31.926 114.768 31.926ZM114.797 35.2872C119.578 35.2872 122.707 31.8971 122.707 27.4349C122.707 22.9727 119.578 19.5826 114.797 19.5826C110.045 19.5826 106.857 22.9727 106.857 27.4349C106.857 31.8971 110.045 35.2872 114.797 35.2872Z" fill="white"/>
<path d="M124.086 34.8236H128.809V19.9883H124.086V34.8236ZM124.086 17.9311H128.809V14.1064H124.086V17.9311Z" fill="white"/>
<path d="M130.858 39.7205H135.581V33.288H135.639C136.566 34.5339 137.928 35.2873 139.84 35.2873C143.723 35.2873 146.302 32.2159 146.302 27.406C146.302 22.9439 143.897 19.5538 139.956 19.5538C137.928 19.5538 136.479 20.452 135.465 21.7849H135.378V19.9884H130.858V39.7205ZM138.623 31.6364C136.595 31.6364 135.436 29.9848 135.436 27.5799C135.436 25.1749 136.479 23.3495 138.536 23.3495C140.565 23.3495 141.521 25.0301 141.521 27.5799C141.521 30.1007 140.42 31.6364 138.623 31.6364Z" fill="white"/>
<path d="M153.992 35.2873C157.875 35.2873 160.743 33.6067 160.743 30.3615C160.743 26.5658 157.672 25.8993 155.064 25.4647C153.181 25.117 151.5 24.9721 151.5 23.929C151.5 23.0018 152.399 22.5672 153.558 22.5672C154.861 22.5672 155.76 22.9728 155.933 24.3057H160.28C160.048 21.3792 157.788 19.5538 153.586 19.5538C150.081 19.5538 147.183 21.1764 147.183 24.3057C147.183 27.7827 149.936 28.4781 152.514 28.9127C154.485 29.2604 156.281 29.4053 156.281 30.7382C156.281 31.6943 155.383 32.2159 153.963 32.2159C152.399 32.2159 151.413 31.4915 151.24 30.0138H146.777C146.922 33.288 149.646 35.2873 153.992 35.2873Z" fill="white"/>
<path d="M167.157 35.2583C169.215 35.2583 170.519 34.447 171.591 32.9982H171.678V34.8237H176.198V19.9884H171.475V28.2753C171.475 30.0428 170.49 31.2597 168.867 31.2597C167.36 31.2597 166.636 30.3615 166.636 28.7389V19.9884H161.942V29.724C161.942 33.0272 163.738 35.2583 167.157 35.2583Z" fill="white"/>
<path d="M178.252 34.8237H182.975V26.5078C182.975 24.7403 183.845 23.4944 185.322 23.4944C186.742 23.4944 187.409 24.4216 187.409 26.0152V34.8237H192.132V26.5078C192.132 24.7403 192.972 23.4944 194.479 23.4944C195.898 23.4944 196.565 24.4216 196.565 26.0152V34.8237H201.288V25.1749C201.288 21.8428 199.607 19.5538 196.246 19.5538C194.334 19.5538 192.74 20.3651 191.581 22.1615H191.523C190.77 20.5679 189.292 19.5538 187.351 19.5538C185.206 19.5538 183.787 20.5679 182.859 22.1036H182.773V19.9884H178.252V34.8237Z" fill="white"/>
<path fill-rule="evenodd" clip-rule="evenodd" d="M10.5991 4.7594C8.87189 5.96713 7.31001 7.39506 5.95415 9.00248C11.4948 8.48809 18.534 9.32803 26.7064 13.4143C35.4335 17.7777 42.4609 17.9252 47.3517 16.9818C46.9079 15.6382 46.3491 14.3469 45.6874 13.1193C40.0888 13.7098 32.9114 12.9282 24.5468 8.74603C19.2352 6.09022 14.5531 4.9962 10.5991 4.7594ZM42.417 8.46433C37.9957 3.52449 31.5706 0.41571 24.4193 0.41571C22.3192 0.41571 20.2816 0.683859 18.339 1.18775C20.97 1.90562 23.7648 2.95584 26.7064 4.42667C32.8306 7.48869 38.1178 8.4746 42.417 8.46433ZM48.3973 21.698C42.4888 22.8648 34.3298 22.6251 24.5468 17.7336C15.4008 13.1606 8.12139 13.2182 3.21188 14.3092C2.95847 14.3655 2.71102 14.4247 2.46955 14.4862C1.82677 15.8842 1.31369 17.3542 0.945542 18.8807C1.33874 18.7756 1.74505 18.6758 2.16426 18.5826C8.12035 17.259 16.5358 17.3165 26.7064 22.4019C35.8525 26.9749 43.1319 26.9173 48.0415 25.8263C48.2097 25.789 48.3755 25.7503 48.5385 25.7105C48.5563 25.3298 48.5653 24.9467 48.5653 24.5616C48.5653 23.5928 48.5083 22.6372 48.3973 21.698ZM47.7501 30.8061C41.8989 31.8291 33.9775 31.4364 24.5468 26.7212C15.4008 22.1482 8.12139 22.2058 3.21188 23.2968C2.12211 23.5389 1.14177 23.8339 0.276975 24.1452C0.274617 24.2837 0.273438 24.4225 0.273438 24.5616C0.273438 37.897 11.0839 48.7075 24.4193 48.7075C35.5954 48.7075 44.9981 41.1147 47.7501 30.8061Z" fill="white"/>
</g>
</svg>
