<svg width="181" height="37" viewBox="0 0 181 37" fill="none" xmlns="http://www.w3.org/2000/svg">
<g opacity="0.3">
<path d="M52.3335 25.4329C52.3335 26.3289 52.1496 27.0175 51.7817 27.4984C51.4234 27.9796 50.8244 28.22 49.985 28.22C49.1926 28.22 48.6315 27.9796 48.3013 27.4984C47.9806 27.0175 47.8203 26.3289 47.8203 25.4329V10.4785C47.8203 9.58241 47.9806 8.89387 48.3013 8.41284C48.6315 7.9318 49.1926 7.69128 49.985 7.69128C50.8244 7.69128 51.4234 7.9318 51.7817 8.41284C52.1496 8.89387 52.3335 9.58241 52.3335 10.4785V25.4329Z" fill="white"/>
<path d="M53.7036 21.0895C53.7036 20.0896 53.8639 19.1464 54.1847 18.2598C54.5148 17.3638 55.0052 16.5809 55.6561 15.9113C56.3163 15.2416 57.1369 14.7087 58.1179 14.3126C59.1082 13.9163 60.2683 13.7183 61.5982 13.7183C62.8716 13.7183 63.9987 13.9022 64.9796 14.2701C65.9606 14.6379 66.7859 15.152 67.4554 15.8123C68.1251 16.463 68.6345 17.2411 68.9835 18.1466C69.3324 19.0426 69.507 20.0235 69.507 21.0895C69.507 22.0798 69.3418 23.0182 69.0118 23.9049C68.6817 24.782 68.1865 25.5555 67.5262 26.2252C66.866 26.8853 66.0407 27.4135 65.0504 27.8098C64.0599 28.1965 62.9092 28.3898 61.5982 28.3898C60.3061 28.3898 59.1648 28.2059 58.1744 27.838C57.1934 27.4607 56.3682 26.9467 55.6985 26.2958C55.0383 25.6357 54.5383 24.8623 54.1988 23.9756C53.8686 23.0796 53.7036 22.1175 53.7036 21.0895ZM58.415 21.0895C58.415 21.712 58.4715 22.3062 58.5847 22.872C58.6978 23.4285 58.8771 23.919 59.1223 24.3435C59.3769 24.7679 59.7071 25.1075 60.1127 25.3621C60.5183 25.6073 61.0134 25.73 61.5982 25.73C62.1359 25.73 62.6027 25.6168 62.9988 25.3903C63.4045 25.1641 63.7346 24.848 63.9893 24.4425C64.2533 24.037 64.4515 23.5512 64.5834 22.9853C64.7155 22.4099 64.7815 21.778 64.7815 21.0895C64.7815 20.4669 64.7202 19.8773 64.5977 19.3209C64.4844 18.755 64.3005 18.2598 64.0458 17.8353C63.7912 17.4015 63.4611 17.0619 63.0555 16.8167C62.6593 16.5621 62.1735 16.4347 61.5982 16.4347C61.0228 16.4347 60.5324 16.5573 60.1268 16.8026C59.7213 17.0478 59.3912 17.3826 59.1364 17.8071C58.8818 18.2316 58.6978 18.7267 58.5847 19.2927C58.4715 19.8585 58.415 20.4575 58.415 21.0895Z" fill="white"/>
<path d="M81.1201 25.4895C80.8654 25.961 80.5541 26.3619 80.1863 26.6921C79.828 27.0221 79.427 27.2957 78.9838 27.5127C78.5499 27.7201 78.083 27.8757 77.5831 27.9795C77.0926 28.0738 76.588 28.121 76.0693 28.121C75.2015 28.121 74.4092 27.9654 73.6923 27.654C72.9756 27.3428 72.3578 26.8948 71.839 26.3101C71.3297 25.7158 70.9336 24.9895 70.6506 24.1313C70.3676 23.2729 70.2261 22.2919 70.2261 21.1885C70.2261 20.1509 70.3582 19.1794 70.6223 18.2739C70.8863 17.3685 71.2683 16.581 71.7683 15.9113C72.2776 15.2416 72.9001 14.7134 73.6358 14.3267C74.3715 13.94 75.211 13.7466 76.1541 13.7466C77.2294 13.7466 78.182 13.9541 79.0121 14.3691C79.8515 14.7841 80.5731 15.4632 81.1767 16.4064V16.0386C81.1767 15.3595 81.3606 14.8502 81.7285 14.5106C82.1058 14.1617 82.6245 13.9871 83.2848 13.9871C83.6809 13.9871 84.0157 14.0531 84.2893 14.1852C84.5627 14.3079 84.7797 14.4964 84.94 14.7512C85.1005 14.9964 85.2136 15.3029 85.2796 15.6708C85.3551 16.0291 85.3927 16.4395 85.3927 16.9016V26.3808C85.3927 27.5315 85.2467 28.5595 84.9542 29.465C84.6713 30.3705 84.2279 31.1346 83.6243 31.757C83.0206 32.3795 82.2472 32.8511 81.304 33.1719C80.3608 33.5019 79.2384 33.667 77.9368 33.667C77.0219 33.667 76.2108 33.6246 75.5033 33.5396C74.8054 33.4643 74.2017 33.3463 73.6923 33.186C73.1831 33.0067 72.7964 32.8087 72.5323 32.5918C72.2776 32.3748 72.1503 32.0918 72.1503 31.7429C72.1503 31.5448 72.1785 31.3562 72.2351 31.1769C72.2918 30.9978 72.3766 30.8374 72.4898 30.6959C72.6124 30.5639 72.768 30.4554 72.9567 30.3705C73.1547 30.2951 73.3952 30.2573 73.6782 30.2573C73.98 30.2573 74.2819 30.2762 74.5837 30.314C74.8949 30.3516 75.2157 30.3894 75.5458 30.4271C75.8853 30.4743 76.239 30.5167 76.6069 30.5544C76.9842 30.5921 77.3897 30.6111 77.8236 30.6111C78.3424 30.6111 78.8045 30.5592 79.2102 30.4554C79.6157 30.3516 79.9599 30.1677 80.2429 29.9036C80.5259 29.6396 80.7428 29.2858 80.8938 28.8425C81.0447 28.4086 81.1201 27.8522 81.1201 27.173V25.4895ZM81.1201 21.0895C81.1201 20.4008 81.0682 19.7736 80.9645 19.2078C80.8702 18.6418 80.705 18.1608 80.4693 17.7646C80.2335 17.3591 79.9175 17.0478 79.5214 16.8309C79.1252 16.6045 78.6301 16.4914 78.0358 16.4914C77.451 16.4914 76.9653 16.6092 76.5786 16.845C76.2013 17.0808 75.8995 17.4063 75.6732 17.8212C75.4468 18.2363 75.2865 18.722 75.192 19.2785C75.1072 19.835 75.0648 20.4292 75.0648 21.0611C75.0648 22.5042 75.3194 23.5889 75.8288 24.3151C76.338 25.0414 77.0785 25.4046 78.05 25.4046C78.5027 25.3952 78.9131 25.3102 79.2808 25.1499C79.6581 24.9801 79.9836 24.7208 80.257 24.3718C80.5306 24.0227 80.7428 23.5794 80.8938 23.0418C81.0447 22.5042 81.1201 21.8535 81.1201 21.0895Z" fill="white"/>
<path d="M86.6919 21.0895C86.6919 20.0896 86.8522 19.1464 87.1729 18.2598C87.5031 17.3638 87.9935 16.5809 88.6443 15.9113C89.3046 15.2416 90.1251 14.7087 91.106 14.3126C92.0965 13.9163 93.2566 13.7183 94.5865 13.7183C95.8597 13.7183 96.9869 13.9022 97.9678 14.2701C98.9487 14.6379 99.774 15.152 100.444 15.8123C101.113 16.463 101.623 17.2411 101.972 18.1466C102.321 19.0426 102.495 20.0235 102.495 21.0895C102.495 22.0798 102.33 23.0182 102 23.9049C101.67 24.782 101.175 25.5555 100.514 26.2252C99.8542 26.8853 99.0289 27.4135 98.0386 27.8098C97.0482 28.1965 95.8975 28.3898 94.5865 28.3898C93.2942 28.3898 92.153 28.2059 91.1626 27.838C90.1817 27.4607 89.3564 26.9467 88.6867 26.2958C88.0266 25.6357 87.5266 24.8623 87.187 23.9756C86.8569 23.0796 86.6919 22.1175 86.6919 21.0895ZM91.4031 21.0895C91.4031 21.712 91.4597 22.3062 91.573 22.872C91.6861 23.4285 91.8653 23.919 92.1106 24.3435C92.3652 24.7679 92.6953 25.1075 93.1009 25.3621C93.5065 25.6073 94.0017 25.73 94.5865 25.73C95.1241 25.73 95.591 25.6168 95.9871 25.3903C96.3926 25.1641 96.7228 24.848 96.9774 24.4425C97.2416 24.037 97.4396 23.5512 97.5717 22.9853C97.7038 22.4099 97.7698 21.778 97.7698 21.0895C97.7698 20.4669 97.7085 19.8773 97.5858 19.3209C97.4727 18.755 97.2887 18.2598 97.0341 17.8353C96.7795 17.4015 96.4493 17.0619 96.0437 16.8167C95.6476 16.5621 95.1618 16.4347 94.5865 16.4347C94.0111 16.4347 93.5206 16.5573 93.1151 16.8026C92.7095 17.0478 92.3793 17.3826 92.1247 17.8071C91.8701 18.2316 91.6861 18.7267 91.573 19.2927C91.4597 19.8585 91.4031 20.4575 91.4031 21.0895Z" fill="white"/>
<path d="M108.563 8.95046C108.563 9.26172 108.492 9.53995 108.35 9.78519C108.209 10.021 108.025 10.219 107.799 10.3795C107.572 10.5398 107.308 10.6623 107.006 10.7472C106.714 10.8227 106.412 10.8604 106.101 10.8604C105.771 10.8604 105.455 10.818 105.153 10.7331C104.861 10.6482 104.601 10.5257 104.375 10.3652C104.149 10.1955 103.969 9.99269 103.837 9.75689C103.705 9.5211 103.639 9.25228 103.639 8.95046C103.639 8.67693 103.7 8.42698 103.823 8.20062C103.955 7.96482 104.13 7.76203 104.347 7.59225C104.563 7.42248 104.823 7.29042 105.125 7.19611C105.427 7.10178 105.757 7.05463 106.115 7.05463C106.426 7.05463 106.728 7.09708 107.021 7.18196C107.322 7.26685 107.586 7.38946 107.813 7.54981C108.039 7.71015 108.218 7.90822 108.35 8.14402C108.492 8.37983 108.563 8.64863 108.563 8.95046ZM108.35 25.4329C108.35 26.3289 108.167 27.0175 107.799 27.4984C107.44 27.9796 106.841 28.22 106.002 28.22C105.21 28.22 104.648 27.9796 104.318 27.4984C103.998 27.0175 103.837 26.3289 103.837 25.4329V16.7743C103.837 15.8782 103.998 15.1897 104.318 14.7087C104.648 14.2277 105.21 13.9871 106.002 13.9871C106.841 13.9871 107.44 14.2277 107.799 14.7087C108.167 15.1897 108.35 15.8782 108.35 16.7743V25.4329Z" fill="white"/>
<path d="M114.856 21.0611C114.856 21.6931 114.904 22.2825 114.998 22.8297C115.102 23.3767 115.271 23.8577 115.507 24.2728C115.753 24.6783 116.073 24.9989 116.469 25.2347C116.875 25.4706 117.375 25.5885 117.969 25.5885C118.516 25.5885 118.973 25.4753 119.342 25.249C119.718 25.0132 120.02 24.6924 120.247 24.2869C120.473 23.8718 120.634 23.3861 120.728 22.8297C120.832 22.2731 120.883 21.6695 120.883 21.0187C120.883 20.5 120.846 19.9718 120.77 19.4342C120.695 18.887 120.554 18.3919 120.346 17.9486C120.139 17.5053 119.851 17.1421 119.483 16.8591C119.115 16.5762 118.634 16.4347 118.04 16.4347C117.446 16.4347 116.941 16.529 116.526 16.7177C116.12 16.9063 115.79 17.194 115.536 17.5807C115.29 17.9674 115.116 18.4532 115.012 19.0379C114.908 19.6133 114.856 20.2877 114.856 21.0611ZM114.842 16.7742C115.078 16.2744 115.38 15.8358 115.748 15.4585C116.116 15.0812 116.521 14.7653 116.965 14.5106C117.408 14.2559 117.87 14.0672 118.351 13.9447C118.842 13.8126 119.327 13.7466 119.808 13.7466C120.676 13.7466 121.459 13.94 122.157 14.3267C122.855 14.7134 123.449 15.2416 123.939 15.9113C124.439 16.5715 124.822 17.3543 125.086 18.2598C125.349 19.1559 125.482 20.118 125.482 21.146C125.482 22.2118 125.34 23.188 125.057 24.0746C124.784 24.9613 124.392 25.7253 123.882 26.3666C123.383 26.9986 122.779 27.4937 122.071 27.8522C121.374 28.2106 120.596 28.3898 119.738 28.3898C118.681 28.3898 117.738 28.1446 116.908 27.654C116.078 27.1636 115.389 26.4751 114.842 25.5885V30.6818C114.842 31.5778 114.658 32.2664 114.29 32.7474C113.932 33.2284 113.333 33.469 112.494 33.469C111.701 33.469 111.14 33.2284 110.81 32.7474C110.489 32.2664 110.329 31.5778 110.329 30.6818V16.7742C110.329 15.8782 110.489 15.1897 110.81 14.7087C111.14 14.2277 111.701 13.9871 112.494 13.9871C113.333 13.9871 113.932 14.2277 114.29 14.7087C114.658 15.1897 114.842 15.8782 114.842 16.7742Z" fill="white"/>
<path d="M130.459 17.7788C130.459 18.1466 130.62 18.4343 130.94 18.6418C131.261 18.8399 131.704 19.005 132.27 19.137C132.808 19.2596 133.359 19.3775 133.926 19.4906C134.492 19.6039 135.043 19.736 135.581 19.8869C136.118 20.0283 136.623 20.1981 137.095 20.3961C137.566 20.5942 137.981 20.8441 138.339 21.146C138.698 21.4384 138.98 21.7968 139.188 22.2212C139.396 22.6363 139.5 23.1362 139.5 23.7209C139.5 24.4566 139.349 25.1122 139.047 25.6875C138.745 26.2534 138.316 26.7344 137.76 27.1307C137.213 27.5268 136.557 27.8333 135.793 28.0503C135.029 28.2672 134.185 28.3803 133.26 28.3898C132.384 28.3898 131.539 28.3333 130.727 28.22C129.917 28.1163 129.195 27.9511 128.563 27.7248C127.941 27.4984 127.441 27.2202 127.063 26.89C126.687 26.5506 126.498 26.1544 126.498 25.7017C126.498 25.3055 126.625 24.9989 126.88 24.782C127.134 24.5652 127.459 24.4566 127.856 24.4566C128.007 24.4566 128.186 24.4849 128.394 24.5415C128.601 24.5981 128.827 24.6689 129.072 24.7537C129.317 24.8386 129.577 24.9329 129.851 25.0367C130.133 25.131 130.426 25.2159 130.727 25.2913C131.105 25.3952 131.492 25.48 131.888 25.5461C132.293 25.6026 132.709 25.631 133.134 25.631C133.397 25.631 133.656 25.6073 133.911 25.5602C134.166 25.5036 134.393 25.4234 134.591 25.3197C134.798 25.2065 134.967 25.065 135.1 24.8952C135.232 24.7255 135.311 24.518 135.34 24.2727C135.368 24.2161 135.392 24.1595 135.41 24.1029C135.43 24.0464 135.439 23.9803 135.439 23.9049C135.439 23.6407 135.316 23.4049 135.071 23.1974C134.836 22.99 134.5 22.8248 134.067 22.7023C133.34 22.5326 132.647 22.3769 131.987 22.2354C131.327 22.0939 130.714 21.943 130.148 21.7827C129.591 21.6224 129.082 21.4384 128.619 21.2308C128.167 21.0234 127.78 20.7687 127.459 20.4669C127.149 20.165 126.903 19.8019 126.724 19.3775C126.554 18.953 126.469 18.439 126.469 17.8353C126.469 17.1846 126.615 16.6045 126.907 16.0951C127.209 15.5764 127.639 15.1426 128.196 14.7935C128.752 14.4445 129.426 14.1805 130.219 14.0013C131.011 13.8126 131.907 13.7183 132.907 13.7183C134.698 13.7183 136.061 13.9353 136.996 14.3691C137.939 14.7935 138.411 15.35 138.411 16.0386C138.411 16.4253 138.283 16.7224 138.028 16.9299C137.773 17.128 137.467 17.227 137.109 17.227C136.92 17.227 136.722 17.194 136.514 17.128C136.316 17.0525 136.076 16.9723 135.793 16.8875C135.509 16.7932 135.17 16.713 134.774 16.647C134.388 16.5715 133.906 16.5337 133.332 16.5337C132.897 16.5337 132.501 16.5526 132.142 16.5904C131.793 16.628 131.492 16.6941 131.237 16.7884C130.992 16.8828 130.799 17.01 130.657 17.1705C130.525 17.3308 130.459 17.5335 130.459 17.7788Z" fill="white"/>
<path d="M145.242 22.9711C145.242 23.4144 145.299 23.8011 145.412 24.1313C145.534 24.4614 145.699 24.7397 145.907 24.966C146.115 25.183 146.355 25.348 146.628 25.4611C146.912 25.565 147.213 25.6169 147.533 25.6169C147.911 25.6169 148.275 25.5603 148.624 25.447C148.972 25.3339 149.279 25.1593 149.543 24.9235C149.816 24.6878 150.034 24.3906 150.194 24.0322C150.354 23.6739 150.434 23.2541 150.434 22.7731V16.7743C150.434 15.8782 150.595 15.1897 150.915 14.7087C151.246 14.2277 151.807 13.9871 152.599 13.9871C153.438 13.9871 154.037 14.2277 154.396 14.7087C154.764 15.1897 154.947 15.8782 154.947 16.7743V25.4329C154.947 26.329 154.764 27.0175 154.396 27.4985C154.037 27.9796 153.438 28.2201 152.599 28.2201C151.807 28.2201 151.246 27.9796 150.915 27.4985C150.595 27.0175 150.434 26.329 150.434 25.4329C150.236 25.8668 149.977 26.2629 149.656 26.6214C149.344 26.9798 148.977 27.291 148.552 27.5551C148.137 27.8098 147.676 28.0078 147.166 28.1493C146.666 28.2908 146.123 28.3616 145.539 28.3616C144.907 28.3616 144.299 28.253 143.713 28.0362C143.139 27.8098 142.629 27.4796 142.186 27.0457C141.743 26.6025 141.389 26.0554 141.125 25.4046C140.861 24.7538 140.729 23.9945 140.729 23.1267V16.7743C140.729 15.8782 140.89 15.1897 141.21 14.7087C141.54 14.2277 142.1 13.9871 142.894 13.9871C143.733 13.9871 144.332 14.2277 144.69 14.7087C145.058 15.1897 145.242 15.8782 145.242 16.7743V22.9711Z" fill="white"/>
<path d="M156.996 16.7742C156.996 15.8782 157.157 15.1897 157.478 14.7087C157.807 14.2277 158.369 13.9871 159.161 13.9871C160.001 13.9871 160.6 14.2277 160.958 14.7087C161.325 15.1897 161.51 15.8782 161.51 16.7742C161.699 16.3215 161.953 15.9113 162.274 15.5434C162.604 15.1661 162.977 14.8455 163.391 14.5813C163.816 14.3173 164.274 14.1144 164.764 13.973C165.254 13.822 165.763 13.7466 166.292 13.7466C166.782 13.7466 167.263 13.8126 167.735 13.9447C168.216 14.0672 168.66 14.2701 169.065 14.5531C169.48 14.8265 169.843 15.1755 170.154 15.6C170.466 16.0244 170.706 16.5337 170.876 17.128C171.169 16.4961 171.513 15.9632 171.909 15.5293C172.305 15.0954 172.734 14.7463 173.196 14.4823C173.658 14.2182 174.14 14.0296 174.64 13.9163C175.149 13.8032 175.657 13.7466 176.167 13.7466C176.77 13.7466 177.346 13.8551 177.893 14.0719C178.45 14.2889 178.935 14.6191 179.35 15.0624C179.775 15.4962 180.11 16.0481 180.355 16.7177C180.61 17.3779 180.736 18.1514 180.736 19.0379V25.4329C180.736 26.3289 180.553 27.0174 180.185 27.4984C179.827 27.9795 179.227 28.22 178.388 28.22C177.596 28.22 177.035 27.9795 176.705 27.4984C176.384 27.0174 176.224 26.3289 176.224 25.4329V19.236C176.224 18.8116 176.167 18.4343 176.054 18.1042C175.941 17.7646 175.78 17.4817 175.573 17.2553C175.375 17.0196 175.139 16.845 174.865 16.7319C174.592 16.6092 174.299 16.5479 173.989 16.5479C173.601 16.5479 173.234 16.6092 172.885 16.7319C172.536 16.8544 172.23 17.0431 171.965 17.2977C171.711 17.5525 171.503 17.8778 171.342 18.2739C171.192 18.6701 171.117 19.1465 171.117 19.7029V25.4329C171.117 26.3289 170.932 27.0174 170.565 27.4984C170.206 27.9795 169.608 28.22 168.767 28.22C167.975 28.22 167.414 27.9795 167.084 27.4984C166.763 27.0174 166.603 26.3289 166.603 25.4329V19.5048C166.603 18.5334 166.4 17.7977 165.995 17.2977C165.598 16.7979 165.056 16.5479 164.368 16.5479C163.962 16.5479 163.584 16.6139 163.235 16.746C162.886 16.8781 162.585 17.0714 162.33 17.3261C162.075 17.5807 161.872 17.8967 161.721 18.2739C161.58 18.6512 161.51 19.0851 161.51 19.5755V25.4329C161.51 26.3289 161.325 27.0174 160.958 27.4984C160.6 27.9795 160.001 28.22 159.161 28.22C158.369 28.22 157.807 27.9795 157.478 27.4984C157.157 27.0174 156.996 26.3289 156.996 25.4329V16.7742Z" fill="white"/>
<path d="M18.3971 25.8054C14.3965 25.8054 11.1533 22.5623 11.1533 18.5617C11.1533 14.561 14.3965 11.3179 18.3971 11.3179C22.3977 11.3179 25.6409 14.561 25.6409 18.5617C25.6409 22.5623 22.3977 25.8054 18.3971 25.8054Z" fill="white"/>
<path d="M4.36367 21.0362C2.26448 21.4063 0.825605 23.4341 1.63141 25.4075C2.75642 28.1626 4.55122 30.6173 6.87806 32.5354C10.2053 35.278 14.4018 36.7436 18.7131 36.6683C23.0243 36.5931 27.1673 34.982 30.3968 32.1248C32.6552 30.1267 34.3633 27.6108 35.3915 24.8182C36.128 22.8179 34.6191 20.8415 32.5083 20.5449C30.3975 20.2483 28.5023 21.7847 27.4597 23.6439C26.8946 24.6516 26.1609 25.5659 25.282 26.3435C23.429 27.9829 21.052 28.9072 18.5785 28.9505C16.1048 28.9936 13.697 28.1528 11.788 26.5791C10.8824 25.8326 10.1174 24.9445 9.51737 23.9571C8.41053 22.1354 6.46286 20.666 4.36367 21.0362Z" fill="white"/>
<path d="M36.3665 20.8247C36.4589 20.0833 36.5065 19.328 36.5065 18.5616C36.5065 8.56003 28.3987 0.452148 18.397 0.452148C8.39548 0.452148 0.287598 8.56003 0.287598 18.5616C0.287598 19.5452 0.366012 20.5104 0.516936 21.4515C1.34874 20.3128 2.64697 19.4999 4.04924 19.2527C5.56644 18.9851 6.94533 19.3531 8.11121 20.0409C8.04233 19.5577 8.00669 19.0638 8.00669 18.5616C8.00669 12.8232 12.6586 8.17124 18.397 8.17124C24.1354 8.17124 28.7874 12.8232 28.7874 18.5616C28.7874 18.94 28.7671 19.3136 28.7278 19.6815C29.869 18.9531 31.2345 18.537 32.7604 18.7515C34.17 18.9496 35.4954 19.7163 36.3665 20.8247Z" fill="white"/>
</g>
</svg>
