<svg width="263" height="49" viewBox="0 0 263 49" fill="none" xmlns="http://www.w3.org/2000/svg">
<g opacity="0.3">
<path d="M146.813 36.0596H152.443V14.825H146.813V36.0596ZM146.813 11.5136H152.443V6.46362H146.813V11.5136Z" fill="white"/>
<path d="M156.071 43.0137H161.7V33.6588H161.783C162.983 35.4801 164.929 36.6806 167.908 36.6806C173.373 36.6806 177.098 32.3343 177.098 25.4631C177.098 18.8401 173.497 14.2455 167.867 14.2455C164.97 14.2455 162.983 15.6115 161.617 17.4742H161.493V14.825H156.071V43.0137ZM166.708 32.0031C163.356 32.0031 161.576 29.4782 161.576 25.6286C161.576 21.8204 162.983 18.7988 166.502 18.7988C169.979 18.7988 171.385 21.6135 171.385 25.6286C171.385 29.6437 169.565 32.0031 166.708 32.0031Z" fill="white"/>
<path d="M188.327 36.6806C193.626 36.6806 197.268 34.1142 197.268 29.8506C197.268 24.8836 193.336 23.8901 189.776 23.1451C186.754 22.5242 183.94 22.3585 183.94 20.5373C183.94 19.0057 185.389 18.1779 187.582 18.1779C189.984 18.1779 191.432 19.0057 191.68 21.2823H196.771C196.358 17.0189 193.253 14.2455 187.666 14.2455C182.822 14.2455 179.014 16.4394 179.014 21.034C179.014 25.67 182.74 26.7048 186.548 27.4499C189.445 28.0294 192.135 28.2364 192.135 30.2646C192.135 31.7548 190.729 32.7069 188.245 32.7069C185.719 32.7069 183.981 31.6306 183.609 29.1884H178.394C178.724 33.7002 182.16 36.6806 188.327 36.6806Z" fill="white"/>
<path d="M218.641 36.0596V14.825H213.012V27.0773C213.012 29.892 211.398 31.8789 208.749 31.8789C206.347 31.8789 205.231 30.5129 205.231 28.0294V14.825H199.642V28.9813C199.642 33.6174 202.291 36.6391 207.01 36.6391C209.991 36.6391 211.646 35.5215 213.095 33.5761H213.219V36.0596H218.641Z" fill="white"/>
<path d="M222.282 36.0596H227.912V23.7246C227.912 20.9098 229.444 19.0886 231.721 19.0886C233.79 19.0886 234.99 20.3303 234.99 22.7311V36.0596H240.62V23.7246C240.62 20.9098 242.069 19.0886 244.428 19.0886C246.498 19.0886 247.698 20.3303 247.698 22.7311V36.0596H253.328V21.779C253.328 17.143 250.802 14.2455 246.332 14.2455C243.642 14.2455 241.406 15.6528 239.957 17.9708H239.875C238.84 15.7356 236.688 14.2455 233.997 14.2455C231.058 14.2455 228.989 15.7356 227.83 17.6811H227.705V14.825H222.282V36.0596Z" fill="white"/>
<path d="M0.0893555 36.0596H5.7188V6.46362H0.0893555V36.0596Z" fill="white"/>
<path d="M19.4835 36.6806C26.065 36.6806 30.5768 31.7962 30.5768 25.4631C30.5768 19.1298 26.065 14.2455 19.4835 14.2455C12.9019 14.2455 8.39014 19.1298 8.39014 25.4631C8.39014 31.7962 12.9019 36.6806 19.4835 36.6806ZM19.4835 32.3757C16.0065 32.3757 14.1024 29.6023 14.1024 25.4631C14.1024 21.3237 16.0065 18.5091 19.4835 18.5091C22.9191 18.5091 24.8646 21.3237 24.8646 25.4631C24.8646 29.6023 22.9191 32.3757 19.4835 32.3757Z" fill="white"/>
<path d="M42.5488 43.3034C45.6947 43.3034 48.4267 42.5584 50.2065 40.9026C51.7794 39.4538 52.7315 37.4256 52.7315 34.4454V14.825H47.3091V17.0603H47.2262C45.943 15.2804 43.9976 14.2455 41.3484 14.2455C35.9674 14.2455 32.1592 18.302 32.1592 24.6351C32.1592 31.0511 36.7952 34.7764 41.514 34.7764C44.2045 34.7764 45.8189 33.7002 47.0606 32.2929H47.1848V34.6109C47.1848 37.5084 45.6533 39.04 42.466 39.04C39.8582 39.04 38.6578 38.0051 38.2025 36.6806H32.6145C33.194 40.8199 36.7538 43.3034 42.5488 43.3034ZM42.466 30.2646C39.5685 30.2646 37.6645 28.1535 37.6645 24.5524C37.6645 20.9926 39.5685 18.7574 42.4246 18.7574C45.8189 18.7574 47.4746 21.4066 47.4746 24.511C47.4746 27.6569 46.0258 30.2646 42.466 30.2646Z" fill="white"/>
<path d="M66.4147 36.6806C72.9961 36.6806 77.508 31.7962 77.508 25.4631C77.508 19.1298 72.9961 14.2455 66.4147 14.2455C59.8332 14.2455 55.3213 19.1298 55.3213 25.4631C55.3213 31.7962 59.8332 36.6806 66.4147 36.6806ZM66.4147 32.3757C62.9376 32.3757 61.0336 29.6023 61.0336 25.4631C61.0336 21.3237 62.9376 18.5091 66.4147 18.5091C69.8503 18.5091 71.7958 21.3237 71.7958 25.4631C71.7958 29.6023 69.8503 32.3757 66.4147 32.3757Z" fill="white"/>
<path d="M255.374 11.3388C255.374 10.3862 256.146 9.61407 257.099 9.61407H260.548C261.501 9.61407 262.273 10.3862 262.273 11.3388C262.273 12.2913 261.501 13.0635 260.548 13.0635H257.099C256.146 13.0635 255.374 12.2913 255.374 11.3388Z" fill="white"/>
<path fill-rule="evenodd" clip-rule="evenodd" d="M111.648 0.415649C124.983 0.415649 135.794 11.2262 135.794 24.5616C135.794 37.897 124.983 48.7075 111.648 48.7075C98.3124 48.7075 87.502 37.897 87.502 24.5616C87.502 11.2262 98.3124 0.415649 111.648 0.415649ZM110.775 2.22248C108.02 2.61014 105.397 4.82359 103.361 8.52554C102.771 9.59935 102.238 10.7857 101.774 12.0666C104.542 11.3709 107.583 10.9607 110.775 10.8972V2.22248ZM99.7327 12.6465C100.31 10.8341 101.017 9.16662 101.832 7.68436C102.841 5.8492 104.039 4.26445 105.389 3.04728C98.0497 5.17871 92.265 10.9635 90.1335 18.3026C91.3507 16.953 92.9354 15.7551 94.7706 14.7458C96.2529 13.9305 97.9203 13.224 99.7327 12.6465ZM99.1528 14.6872C98.4571 17.4558 98.047 20.4971 97.9835 23.6888H89.3087C89.6963 20.9341 91.9098 18.3112 95.6118 16.2752C96.6856 15.6846 97.8719 15.1517 99.1528 14.6872ZM99.7293 23.6888C99.8014 20.2057 100.303 16.9356 101.133 14.0463C104.022 13.2166 107.292 12.7151 110.775 12.643V16.4133C109.476 19.7399 106.825 22.3899 103.499 23.6888H99.7293ZM97.9835 25.4343H89.3087C89.6963 28.189 91.9098 30.8119 95.6118 32.848C96.6856 33.4386 97.8719 33.9715 99.1528 34.4359C98.4571 31.6674 98.047 28.6261 97.9835 25.4343ZM101.133 35.0769C100.303 32.1876 99.8014 28.9175 99.7293 25.4343H103.499C106.825 26.7333 109.476 29.3833 110.775 32.7099V36.4801C107.292 36.4081 104.022 35.9065 101.133 35.0769ZM99.7327 36.4766C97.9203 35.8992 96.2529 35.1927 94.7706 34.3774C92.9354 33.3681 91.3507 32.1702 90.1335 30.8206C92.265 38.1596 98.0497 43.9445 105.389 46.0759C104.039 44.8587 102.841 43.274 101.832 41.4387C101.017 39.9565 100.31 38.289 99.7327 36.4766ZM110.775 46.9007C108.02 46.513 105.397 44.2996 103.361 40.5976C102.771 39.5238 102.238 38.3374 101.774 37.0566C104.542 37.7523 107.583 38.1625 110.775 38.2259V46.9007ZM117.907 46.0759C119.257 44.8587 120.454 43.274 121.464 41.4387C122.278 39.9565 122.986 38.289 123.563 36.4766C125.375 35.8992 127.042 35.1927 128.525 34.3774C130.36 33.3681 131.945 32.1702 133.162 30.8206C131.03 38.1596 125.246 43.9445 117.907 46.0759ZM121.523 37.0566C121.058 38.3374 120.524 39.5238 119.934 40.5976C117.898 44.2996 115.275 46.513 112.521 46.9007V38.2259C115.712 38.1625 118.754 37.7523 121.523 37.0566ZM124.143 34.4359C125.424 33.9715 126.61 33.4386 127.684 32.848C131.386 30.812 133.599 28.189 133.987 25.4343H125.312C125.248 28.6261 124.838 31.6674 124.143 34.4359ZM123.567 25.4343C123.494 28.9175 122.993 32.1876 122.163 35.0769C119.274 35.9065 116.004 36.4081 112.521 36.4801V32.7126C113.82 29.3849 116.47 26.7336 119.798 25.4343H123.567ZM125.312 23.6888H133.987C133.599 20.9341 131.386 18.3112 127.684 16.2752C126.61 15.6846 125.424 15.1517 124.143 14.6872C124.838 17.4558 125.248 20.4971 125.312 23.6888ZM122.163 14.0463C122.993 16.9356 123.494 20.2057 123.567 23.6888H119.798C116.47 22.3895 113.82 19.7383 112.521 16.4105V12.643C116.004 12.7151 119.274 13.2166 122.163 14.0463ZM123.563 12.6465C125.375 13.224 127.042 13.9305 128.525 14.7458C130.36 15.7551 131.945 16.953 133.162 18.3026C131.03 10.9635 125.246 5.17871 117.907 3.04728C119.257 4.26445 120.454 5.8492 121.464 7.68436C122.278 9.16662 122.986 10.8341 123.563 12.6465ZM112.521 2.22248C115.275 2.61014 117.898 4.82359 119.934 8.52554C120.524 9.59936 121.058 10.7857 121.523 12.0666C118.754 11.3709 115.712 10.9607 112.521 10.8972V2.22248Z" fill="white"/>
</g>
</svg>
