<svg width="34" height="34" viewBox="0 0 34 34" fill="none" xmlns="http://www.w3.org/2000/svg">
<path d="M17 17.7314L19.9411 22.6333H32L29.0589 17.7314H4.94109L2 22.6333H14.0589L17 17.7314Z" stroke="#0075FF" stroke-width="2" stroke-miterlimit="10"/>
<path d="M28.8298 22.6333V32.5023H5.17041V22.6333" stroke="#0075FF" stroke-width="2" stroke-miterlimit="10"/>
<path d="M17 4.92139V32.5022" stroke="#0075FF" stroke-width="2" stroke-miterlimit="10"/>
<path d="M23.8626 9.3985C24.9455 9.3985 25.8233 8.52065 25.8233 7.43778C25.8233 6.3549 24.9455 5.47705 23.8626 5.47705C22.7797 5.47705 21.9019 6.3549 21.9019 7.43778C21.9019 8.52065 22.7797 9.3985 23.8626 9.3985Z" stroke="#0075FF" stroke-width="2" stroke-miterlimit="10"/>
<path d="M20.9214 17.7969V14.578L23.8625 12.6173V9.39844" stroke="#0075FF" stroke-width="2" stroke-miterlimit="10"/>
<path d="M10.1375 9.3985C11.2204 9.3985 12.0982 8.52065 12.0982 7.43778C12.0982 6.3549 11.2204 5.47705 10.1375 5.47705C9.0546 5.47705 8.17676 6.3549 8.17676 7.43778C8.17676 8.52065 9.0546 9.3985 10.1375 9.3985Z" stroke="#0075FF" stroke-width="2" stroke-miterlimit="10"/>
<path d="M10.1375 9.39844V12.6173L13.0785 14.578V17.7315" stroke="#0075FF" stroke-width="2" stroke-miterlimit="10"/>
<path d="M17 4.92145C18.0829 4.92145 18.9608 4.0436 18.9608 2.96072C18.9608 1.87785 18.0829 1 17 1C15.9172 1 15.0393 1.87785 15.0393 2.96072C15.0393 4.0436 15.9172 4.92145 17 4.92145Z" stroke="#0075FF" stroke-width="2" stroke-miterlimit="10"/>
</svg>
