<svg width="45" height="47" viewBox="0 0 45 47" fill="none" xmlns="http://www.w3.org/2000/svg">
<g filter="url(#filter0_d_35_4196)">
<circle cx="8.5" cy="8.5" r="8.5" transform="matrix(1 0 0 -1 14 29)" fill="url(#paint0_linear_35_4196)"/>
</g>
<circle cx="14.5" cy="14.5" r="14" transform="matrix(1 0 0 -1 8 35)" stroke="white"/>
<circle cx="14.5" cy="14.5" r="14" transform="matrix(1 0 0 -1 8 35)" stroke="url(#paint1_linear_35_4196)"/>
<g opacity="0.25">
<circle cx="20.5" cy="20.5" r="20" transform="matrix(1 0 0 -1 2 41)" stroke="white"/>
<circle cx="20.5" cy="20.5" r="20" transform="matrix(1 0 0 -1 2 41)" stroke="url(#paint2_linear_35_4196)"/>
</g>
<defs>
<filter id="filter0_d_35_4196" x="0" y="2" width="45" height="45" filterUnits="userSpaceOnUse" color-interpolation-filters="sRGB">
<feFlood flood-opacity="0" result="BackgroundImageFix"/>
<feColorMatrix in="SourceAlpha" type="matrix" values="0 0 0 0 0 0 0 0 0 0 0 0 0 0 0 0 0 0 127 0" result="hardAlpha"/>
<feOffset dy="4"/>
<feGaussianBlur stdDeviation="7"/>
<feComposite in2="hardAlpha" operator="out"/>
<feColorMatrix type="matrix" values="0 0 0 0 0 0 0 0 0 0.286275 0 0 0 0 1 0 0 0 1 0"/>
<feBlend mode="normal" in2="BackgroundImageFix" result="effect1_dropShadow_35_4196"/>
<feBlend mode="normal" in="SourceGraphic" in2="effect1_dropShadow_35_4196" result="shape"/>
</filter>
<linearGradient id="paint0_linear_35_4196" x1="5.30573" y1="-7.41026" x2="17.264" y2="-5.03383" gradientUnits="userSpaceOnUse">
<stop stop-color="#0049FF"/>
<stop offset="1" stop-color="#00C4FF"/>
</linearGradient>
<linearGradient id="paint1_linear_35_4196" x1="9.05096" y1="-12.641" x2="29.4504" y2="-8.58712" gradientUnits="userSpaceOnUse">
<stop stop-color="#0049FF"/>
<stop offset="1" stop-color="#00C4FF"/>
</linearGradient>
<linearGradient id="paint2_linear_35_4196" x1="12.7962" y1="-17.8718" x2="41.6368" y2="-12.1404" gradientUnits="userSpaceOnUse">
<stop stop-color="#0049FF"/>
<stop offset="1" stop-color="#00C4FF"/>
</linearGradient>
</defs>
</svg>
