<svg width="12" height="22" viewBox="0 0 12 22" fill="none" xmlns="http://www.w3.org/2000/svg">
<path fill-rule="evenodd" clip-rule="evenodd" d="M7.57546 0.0637691C6.31207 0.276322 5.24015 0.868514 4.53178 1.74528C4.03749 2.35707 3.74378 2.95618 3.53941 3.76969C3.37345 4.43022 3.32403 5.08953 3.32403 6.64277V7.90429H1.79995C0.312209 7.90429 0.273493 7.90644 0.17871 7.99437C0.125319 8.04392 0.0633819 8.13219 0.0411105 8.19055C-0.0172441 8.34332 -0.0118492 11.9816 0.0469802 12.1495C0.146641 12.4343 0.161186 12.4367 1.82343 12.4509L3.32252 12.4637L3.33409 17.1002L3.34561 21.7365L3.47238 21.8683L3.59914 22H5.68869H7.77823L7.90344 21.8665L8.02866 21.733V17.0981V12.4632L9.78749 12.4507C11.6818 12.4371 11.6678 12.4389 11.7919 12.208C11.8362 12.1256 11.8485 11.6743 11.8485 10.1289V8.15509L11.7075 8.02969L11.5665 7.90429H9.79349H8.02041L8.03906 6.56133C8.06008 5.04815 8.08062 4.93027 8.37395 4.63821C8.66758 4.34586 8.78593 4.3251 10.3162 4.29747C11.8211 4.27031 11.8553 4.26373 11.9531 3.98435C12.0118 3.81671 12.0172 0.435586 11.959 0.283198C11.9367 0.224838 11.8748 0.136568 11.8214 0.0870184C11.7257 -0.00176736 11.6967 -0.00301362 9.8225 0.00132683C8.4418 0.00450696 7.82614 0.0216109 7.57546 0.0637691Z" fill="#00C4FF"/>
</svg>
