<svg width="32" height="33" viewBox="0 0 32 33" fill="none" xmlns="http://www.w3.org/2000/svg">
<path d="M20.6856 26.2769H4.89547C2.74404 26.2769 1 24.5328 1 22.3814V11.0893C1 8.93789 2.74404 7.19385 4.89547 7.19385H20.6856C22.837 7.19385 24.5811 8.93789 24.5811 11.0893V22.3814C24.5811 24.5328 22.837 26.2769 20.6856 26.2769Z" stroke="#0075FF" stroke-width="2" stroke-miterlimit="10" stroke-linecap="round" stroke-linejoin="round"/>
<path d="M16.9954 31.5271H8.58616C7.17429 31.5271 6.36494 29.9194 7.20617 28.7858L9.06786 26.2773H16.5137L18.3754 28.7858C19.2166 29.9194 18.4073 31.5271 16.9954 31.5271Z" stroke="#0075FF" stroke-width="2" stroke-miterlimit="10" stroke-linecap="round" stroke-linejoin="round"/>
<path d="M24.7104 21.3809H27.1045C29.2483 21.3809 30.9875 19.6492 30.9999 17.5083" stroke="#0075FF" stroke-width="2" stroke-miterlimit="10" stroke-linecap="round" stroke-linejoin="round"/>
<path d="M31 11.0412V4.89547C31 2.74404 29.2559 1 27.1046 1H11.3144C9.16299 1 7.41895 2.74404 7.41895 4.89547V6.90746" stroke="#0075FF" stroke-width="2" stroke-miterlimit="10" stroke-linecap="round" stroke-linejoin="round"/>
<path d="M10.0303 20.9961H15.5511" stroke="#0075FF" stroke-width="2" stroke-miterlimit="10" stroke-linecap="round" stroke-linejoin="round"/>
</svg>
